<?xml version="1.0" encoding="utf-8" standalone="no"?>
<!DOCTYPE svg PUBLIC "-//W3C//DTD SVG 1.1//EN"
  "http://www.w3.org/Graphics/SVG/1.1/DTD/svg11.dtd">
<!-- Created with matplotlib (http://matplotlib.org/) -->
<svg height="22pt" version="1.1" viewBox="0 0 72 22" width="72pt" xmlns="http://www.w3.org/2000/svg" xmlns:xlink="http://www.w3.org/1999/xlink">
 <defs>
  <style type="text/css">
*{stroke-linecap:butt;stroke-linejoin:round;stroke-miterlimit:100000;}
  </style>
 </defs>
 <g id="figure_1">
  <g id="patch_1">
   <path d="M 0 22.5 
L 72.9 22.5 
L 72.9 0 
L 0 0 
L 0 22.5 
z
" style="fill:none;"/>
  </g>
  <g id="axes_1">
   <g id="line2d_1">
    <path clip-path="url(#p02167d9fc6)" d="M 0.714706 18.984375 
L 0.89383 18.461283 
L 1.072954 18.244497 
L 1.789452 17.704183 
L 3.043322 17.108906 
L 5.013689 16.465909 
L 7.700553 15.842977 
L 11.283038 15.259178 
L 15.582021 14.793931 
L 20.597501 14.478122 
L 26.329478 14.340931 
L 32.777952 14.408409 
L 40.122048 14.713921 
L 47.466143 15.235985 
L 54.093742 15.938073 
L 60.72134 16.860884 
L 67.348939 18.005113 
L 72.185294 18.984375 
L 72.185294 18.984375 
" style="fill:none;stroke:#ffffff;stroke-linecap:square;stroke-width:0.5;"/>
   </g>
   <g id="line2d_2">
    <path clip-path="url(#p02167d9fc6)" d="M 0.714706 18.984375 
L 0.89383 19.48402 
L 1.072954 19.677456 
L 1.789452 20.125356 
L 3.043322 20.562686 
L 5.013689 20.967197 
L 7.879677 21.299252 
L 11.820411 21.511711 
L 17.015015 21.555107 
L 23.821738 21.379036 
L 33.315325 20.894846 
L 62.870831 19.227135 
L 72.185294 18.984375 
L 72.185294 18.984375 
" style="fill:none;stroke:#ffffff;stroke-linecap:square;stroke-width:0.5;"/>
   </g>
   <g id="text_1">
    <!-- FLOW Lab -->
    <defs>
     <path d="M 41.109375 69.09375 
Q 56.25 69.09375 66.765625 58.90625 
Q 77.296875 48.734375 77.296875 34.078125 
Q 77.296875 19.484375 66.765625 9.296875 
Q 56.25 -0.875 41.109375 -0.875 
Q 26.03125 -0.875 15.546875 9.296875 
Q 5.078125 19.484375 5.078125 34.078125 
Q 5.078125 48.734375 15.546875 58.90625 
Q 26.03125 69.09375 41.109375 69.09375 
M 41.3125 4 
Q 54.046875 4 62.8125 12.71875 
Q 71.578125 21.4375 71.578125 34.078125 
Q 71.578125 46.78125 62.8125 55.484375 
Q 54.046875 64.203125 41.3125 64.203125 
Q 28.515625 64.203125 19.65625 55.484375 
Q 10.796875 46.78125 10.796875 34.078125 
Q 10.796875 21.4375 19.65625 12.71875 
Q 28.515625 4 41.3125 4 
" id="GillSans-Light-4f"/>
     <path d="M 42.921875 68.21875 
L 42.921875 63.8125 
L 13.09375 63.8125 
L 13.09375 37.890625 
L 39.984375 37.890625 
L 39.984375 33.5 
L 13.09375 33.5 
L 13.09375 0 
L 7.8125 0 
L 7.8125 68.21875 
z
" id="GillSans-Light-46"/>
     <path d="M 51.609375 56.890625 
L 28.71875 -0.6875 
L 27.296875 -0.6875 
L -0.09375 68.21875 
L 5.328125 68.21875 
L 27.875 11.625 
L 50.78125 68.21875 
L 52.390625 68.21875 
L 75.203125 11.625 
L 97.796875 68.21875 
L 103.21875 68.21875 
L 75.78125 -0.6875 
L 74.515625 -0.6875 
z
" id="GillSans-Light-57"/>
     <path d="M 42.09375 7.8125 
L 42.09375 3.8125 
Q 35.890625 -0.875 33.015625 -0.875 
Q 31.34375 -0.875 30.703125 0.21875 
Q 30.078125 1.3125 29.78125 4.6875 
Q 22.703125 -0.875 15.71875 -0.875 
Q 10.640625 -0.875 7.125 2.4375 
Q 3.609375 5.765625 3.609375 10.5 
Q 3.609375 17.828125 10.390625 22.046875 
Q 17.1875 26.265625 29.78125 26.90625 
L 29.78125 32.625 
Q 29.78125 41.796875 19.828125 41.796875 
Q 13.484375 41.796875 6.109375 36.078125 
L 6.109375 41.015625 
Q 13.71875 45.796875 20.609375 45.796875 
Q 26.703125 45.796875 30.65625 42.796875 
Q 34.625 39.796875 34.625 34.078125 
L 34.625 6.109375 
Q 34.625 3.8125 35.6875 3.8125 
Q 37.0625 3.8125 42.09375 7.8125 
M 29.78125 8.890625 
L 29.78125 22.90625 
Q 20.5625 23.25 14.484375 19.65625 
Q 8.40625 16.0625 8.40625 10.5 
Q 8.40625 7.375 10.9375 5.21875 
Q 13.484375 3.078125 17.28125 3.078125 
Q 23.4375 3.078125 29.78125 8.890625 
" id="GillSans-Light-61"/>
     <path d="M 6.203125 2.484375 
L 6.203125 68.21875 
L 10.984375 68.21875 
L 10.984375 38.484375 
Q 18.171875 45.796875 27.203125 45.796875 
Q 35.984375 45.796875 41.59375 39.671875 
Q 47.21875 33.546875 47.21875 23.875 
Q 47.21875 12.640625 40.359375 5.875 
Q 33.5 -0.875 22.125 -0.875 
Q 14.65625 -0.875 6.203125 2.484375 
M 10.984375 33.109375 
L 10.984375 5.90625 
Q 16.546875 3.8125 22.015625 3.8125 
Q 30.71875 3.8125 36.40625 9.390625 
Q 42.09375 14.984375 42.09375 23.578125 
Q 42.09375 31.546875 37.6875 36.671875 
Q 33.296875 41.796875 26.609375 41.796875 
Q 18.609375 41.796875 10.984375 33.109375 
" id="GillSans-Light-62"/>
     <path d="M 13.1875 68.21875 
L 13.1875 4.390625 
L 46.921875 4.390625 
L 46.921875 0 
L 7.90625 0 
L 7.90625 68.21875 
z
" id="GillSans-Light-4c"/>
     <path id="GillSans-Light-20"/>
    </defs>
    <g style="fill:#ffffff;" transform="translate(0.714705882353 11.953125)scale(0.16 -0.16)">
     <use xlink:href="#GillSans-Light-46"/>
     <use x="43.798828125" xlink:href="#GillSans-Light-4c"/>
     <use x="90.72265625" xlink:href="#GillSans-Light-4f"/>
     <use x="173.046875" xlink:href="#GillSans-Light-57"/>
     <use x="276.123046875" xlink:href="#GillSans-Light-20"/>
     <use x="303.90625" xlink:href="#GillSans-Light-4c"/>
     <use x="350.830078125" xlink:href="#GillSans-Light-61"/>
     <use x="393.505859375" xlink:href="#GillSans-Light-62"/>
    </g>
   </g>
  </g>
 </g>
 <defs>
  <clipPath id="p02167d9fc6">
   <rect height="22.5" width="72.9" x="0.0" y="0.0"/>
  </clipPath>
 </defs>
</svg>
