<?xml version="1.0" encoding="UTF-8"?>
<!DOCTYPE svg PUBLIC "-//W3C//DTD SVG 1.1//EN" "http://www.w3.org/Graphics/SVG/1.1/DTD/svg11.dtd">
<svg version="1.1" xmlns="http://www.w3.org/2000/svg" xmlns:xlink="http://www.w3.org/1999/xlink" x="0" y="0" width="420" height="200" viewBox="0, 0, 420, 200">
  <defs>
    <clipPath id="Clip_1">
      <path d="M0,200 L420,200 L420,0 L0,0 z"/>
    </clipPath>
  </defs>
  <g id="Layer_1">
    <g clip-path="url(#Clip_1)">
      <path d="M296.659,129.424 C287.991,133.594 279.25,137.611 270.44,141.473 C267.365,142.821 264.281,144.151 261.272,145.641 C254.998,148.748 249.097,152.533 243.224,156.341 C237.95,159.76 232.691,163.204 227.523,166.781 C223.001,169.912 218.551,173.144 214.051,176.304 C210.824,178.571 207.571,180.801 204.411,183.162 C203.594,183.772 202.754,184.45 202.55,185.448 C202.243,186.947 203.394,188.29 204.909,188.818 C206.223,189.276 207.641,189.145 208.996,188.834 C210.982,188.377 212.839,187.556 214.671,186.686 C216.886,185.634 219.08,184.502 221.265,183.383 C225.906,181.006 230.561,178.658 235.163,176.205 C241.934,172.596 248.585,168.764 255.081,164.68 C258.547,162.501 261.968,160.251 265.409,158.033 C268.797,155.849 272.205,153.695 275.534,151.421 C279.577,148.659 283.497,145.724 287.454,142.842 C291.294,140.044 295.17,137.295 299.079,134.596 L296.659,129.424 z M296.659,129.424" fill="#FFFFFF"/>
      <path d="M319.616,115.008 C326.586,121.978 326.586,133.278 319.616,140.248 C312.646,147.217 301.346,147.217 294.376,140.248 C287.407,133.278 287.407,121.978 294.376,115.008 C301.346,108.038 312.646,108.038 319.616,115.008 z M319.616,115.008" fill="#FFFFFF"/>
      <path d="M316.415,134.806 C324.361,140.228 332.21,145.789 339.96,151.488 C342.664,153.477 345.358,155.484 348.153,157.344 C353.981,161.224 360.209,164.442 366.443,167.624 C372.042,170.482 377.653,173.315 383.336,176.002 C388.307,178.352 393.331,180.59 398.319,182.907 C401.895,184.569 405.453,186.271 409.077,187.827 C410.015,188.229 411.022,188.618 411.988,188.295 C413.439,187.812 414.027,186.144 413.727,184.567 C413.467,183.201 412.644,182.038 411.697,181.021 C410.308,179.528 408.669,178.331 406.999,177.179 C404.981,175.787 402.904,174.453 400.842,173.12 C396.463,170.29 392.102,167.432 387.677,164.673 C381.166,160.614 374.522,156.77 367.737,153.186 C364.117,151.274 360.458,149.436 356.817,147.566 C353.231,145.723 349.661,143.849 346.028,142.103 C341.615,139.982 337.113,138.055 332.637,136.069 C328.295,134.142 323.977,132.161 319.684,130.125 L316.415,134.806 z M316.415,134.806" fill="#FFFFFF"/>
      <path d="M309.04,122.289 C309.762,112.697 310.653,103.118 311.714,93.558 C312.084,90.22 312.475,86.884 312.689,83.534 C313.134,76.547 312.808,69.544 312.447,62.554 C312.122,56.277 311.77,50 311.255,43.736 C310.805,38.255 310.231,32.785 309.744,27.307 C309.395,23.379 309.09,19.447 308.625,15.531 C308.505,14.518 308.338,13.451 307.576,12.775 C306.431,11.76 304.693,12.085 303.477,13.134 C302.424,14.042 301.828,15.336 301.421,16.665 C300.823,18.614 300.606,20.632 300.443,22.654 C300.247,25.098 300.13,27.563 300.007,30.015 C299.745,35.223 299.451,40.429 299.274,45.64 C299.014,53.309 299.008,60.985 299.296,68.653 C299.45,72.744 299.688,76.831 299.888,80.92 C300.086,84.947 300.247,88.975 300.552,92.995 C300.922,97.877 301.504,102.74 302.022,107.608 C302.525,112.332 302.967,117.063 303.35,121.798 L309.04,122.289 z M309.04,122.289" fill="#FFFFFF"/>
      <text transform="matrix(1, 0, -0, 1, 131.599, 46)">
        <tspan x="-131.599" y="31" font-family="GillSans-Light" font-size="96" fill="#FFFFFF">F</tspan>
        <tspan x="-89.552" y="31" font-family="GillSans-Light" font-size="96" kerning="0.019" fill="#FFFFFF">L</tspan>
        <tspan x="-44.486" y="31" font-family="GillSans-Light" font-size="96" kerning="-1.899" fill="#FFFFFF">O</tspan>
        <tspan x="32.646" y="31" font-family="GillSans-Light" font-size="96" kerning="0" fill="#FFFFFF">W</tspan>
      </text>
      <text transform="matrix(1, 0, -0, 1, 67.496, 155)">
        <tspan x="-67.496" y="31" font-family="GillSans-Light" font-size="96" kerning="0.019" fill="#FFFFFF">La</tspan>
        <tspan x="18.558" y="31" font-family="GillSans-Light" font-size="96" kerning="0" fill="#FFFFFF">b</tspan>
      </text>
    </g>
  </g>
</svg>
