<?xml version="1.0" encoding="utf-8" standalone="no"?>
<!DOCTYPE svg PUBLIC "-//W3C//DTD SVG 1.1//EN"
  "http://www.w3.org/Graphics/SVG/1.1/DTD/svg11.dtd">
<!-- Created with matplotlib (http://matplotlib.org/) -->
<svg height="320pt" version="1.1" viewBox="0 0 432 320" width="432pt" xmlns="http://www.w3.org/2000/svg" xmlns:xlink="http://www.w3.org/1999/xlink">
 <defs>
  <style type="text/css">
*{stroke-linecap:butt;stroke-linejoin:round;}
  </style>
 </defs>
 <g id="figure_1">
  <g id="patch_1">
   <path d="
M0 320.4
L432 320.4
L432 0
L0 0
z
" style="fill:none;"/>
  </g>
  <g id="axes_1">
   <g id="Quiver_1">
    <defs>
     <path d="
M0.446907 0.446907
L7.48202e-17 0.893814
L1.34072 1.34072
L-4.46907 4.46907
L-1.34072 -1.34072
L-0.893814 7.48202e-17
L-0.446907 -0.446907
L0.446907 0.446907" id="C0_0_f403b83836"/>
     <path d="
M0.546084 0.435764
L0.11032 0.981847
L1.63825 1.30729
L-4.35764 5.46084
L-1.63825 -1.30729
L-0.981847 0.11032
L-0.546084 -0.435764
L0.546084 0.435764" id="C0_1_5284b64dfb"/>
     <path d="
M0.65956 0.393071
L0.266489 1.05263
L1.97868 1.17921
L-3.93071 6.5956
L-1.97868 -1.17921
L-1.05263 0.266489
L-0.65956 -0.393071
L0.65956 0.393071" id="C0_2_993f090170"/>
     <path d="
M0.773739 0.304806
L0.468933 1.07855
L2.32122 0.914419
L-3.04806 7.73739
L-2.32122 -0.914419
L-1.07855 0.468933
L-0.773739 -0.304806
L0.773739 0.304806" id="C0_3_e7ddc265ea"/>
     <path d="
M0.862062 0.165446
L0.696616 1.02751
L2.58619 0.496339
L-1.65446 8.62062
L-2.58619 -0.496339
L-1.02751 0.696616
L-0.862062 -0.165446
L0.862062 0.165446" id="C0_4_1f2fc3303c"/>
     <path d="
M0.893723 -0.0090275
L0.90275 0.884695
L2.68117 -0.0270825
L0.090275 8.93723
L-2.68117 0.0270825
L-0.884695 0.90275
L-0.893723 0.0090275
L0.893723 -0.0090275" id="C0_5_21488f7719"/>
     <path d="
M0.855328 -0.181433
L1.03676 0.673895
L2.56598 -0.5443
L1.81433 8.55328
L-2.56598 0.5443
L-0.673895 1.03676
L-0.855328 0.181433
L0.855328 -0.181433" id="C0_6_715c71343c"/>
     <path d="
M0.762957 -0.315972
L1.07893 0.446985
L2.28887 -0.947916
L3.15972 7.62957
L-2.28887 0.947916
L-0.446985 1.07893
L-0.762957 0.315972
L0.762957 -0.315972" id="C0_7_8d2159f158"/>
     <path d="
M0.647853 -0.399182
L1.04704 0.248671
L1.94356 -1.19755
L3.99182 6.47853
L-1.94356 1.19755
L-0.248671 1.04704
L-0.647853 0.399182
L0.647853 -0.399182" id="C0_8_dad18f2cbd"/>
     <path d="
M0.535404 -0.438057
L0.973461 0.0973461
L1.60621 -1.31417
L4.38057 5.35404
L-1.60621 1.31417
L-0.0973461 0.973461
L-0.535404 0.438057
L0.535404 -0.438057" id="C0_9_7914a3140c"/>
     <path d="
M0.435764 0.546084
L-0.11032 0.981847
L1.30729 1.63825
L-5.46084 4.35764
L-1.30729 -1.63825
L-0.981847 -0.11032
L-0.435764 -0.546084
L0.435764 0.546084" id="C0_a_193be23ceb"/>
     <path d="
M0.560048 0.560048
L7.48202e-17 1.1201
L1.68014 1.68014
L-5.60048 5.60048
L-1.68014 -1.68014
L-1.1201 7.48202e-17
L-0.560048 -0.560048
L0.560048 0.560048" id="C0_b_2ffda31270"/>
     <path d="
M0.719041 0.537006
L0.182036 1.25605
L2.15712 1.61102
L-5.37006 7.19041
L-2.15712 -1.61102
L-1.25605 0.182036
L-0.719041 -0.537006
L0.719041 0.537006" id="C0_c_34bc4a6563"/>
     <path d="
M0.900608 0.444604
L0.456004 1.34521
L2.70182 1.33381
L-4.44604 9.00608
L-2.70182 -1.33381
L-1.34521 0.456004
L-0.900608 -0.444604
L0.900608 0.444604" id="C0_d_661f740fb3"/>
     <path d="
M1.05885 0.25466
L0.804189 1.31351
L3.17655 0.76398
L-2.5466 10.5885
L-3.17655 -0.76398
L-1.31351 0.804189
L-1.05885 -0.25466
L1.05885 0.25466" id="C0_e_ad5fd48bb6"/>
     <path d="
M1.11992 -0.0141762
L1.13409 1.10574
L3.35975 -0.0425285
L0.141762 11.1992
L-3.35975 0.0425285
L-1.10574 1.13409
L-1.11992 0.0141762
L1.11992 -0.0141762" id="C0_f_6820b6fdd5"/>
     <path d="
M1.04617 -0.278096
L1.32427 0.768076
L3.13852 -0.834289
L2.78096 10.4617
L-3.13852 0.834289
L-0.768076 1.32427
L-1.04617 0.278096
L1.04617 -0.278096" id="C0_10_1f5be58f23"/>
     <path d="
M0.882419 -0.457964
L1.34038 0.424455
L2.64726 -1.37389
L4.57964 8.82419
L-2.64726 1.37389
L-0.424455 1.34038
L-0.882419 0.457964
L0.882419 -0.457964" id="C0_11_9c547467cf"/>
     <path d="
M0.701719 -0.541833
L1.24355 0.159885
L2.10516 -1.6255
L5.41833 7.01719
L-2.10516 1.6255
L-0.159885 1.24355
L-0.701719 0.541833
L0.701719 -0.541833" id="C0_12_8a1a33dd88"/>
     <path d="
M0.546049 -0.559873
L1.10592 -0.013824
L1.63815 -1.67962
L5.59873 5.46049
L-1.63815 1.67962
L0.013824 1.10592
L-0.546049 0.559873
L0.546049 -0.559873" id="C0_13_b3f79f2e22"/>
     <path d="
M0.393071 0.65956
L-0.266489 1.05263
L1.17921 1.97868
L-6.5956 3.93071
L-1.17921 -1.97868
L-1.05263 -0.266489
L-0.393071 -0.65956
L0.393071 0.65956" id="C0_14_ba32470dc4"/>
     <path d="
M0.537006 0.719041
L-0.182036 1.25605
L1.61102 2.15712
L-7.19041 5.37006
L-1.61102 -2.15712
L-1.25605 -0.182036
L-0.537006 -0.719041
L0.537006 0.719041" id="C0_15_544355cafb"/>
     <path d="
M0.749895 0.749895
L1.4964e-16 1.49979
L2.24968 2.24968
L-7.49895 7.49895
L-2.24968 -2.24968
L-1.49979 1.4964e-16
L-0.749895 -0.749895
L0.749895 0.749895" id="C0_16_ff6233ccf4"/>
     <path d="
M1.04374 0.689927
L0.353809 1.73366
L3.13121 2.06978
L-6.89927 10.4374
L-3.13121 -2.06978
L-1.73366 0.353809
L-1.04374 -0.689927
L1.04374 0.689927" id="C0_17_c2053d9fb4"/>
     <path d="
M1.28296 0.413155
L0.625339 2.45523
L3.60441 1.99858
L-4.37601 13.5887
L-4.09333 -0.480349
L-1.94057 1.62892
L-1.28296 -0.413155
L1.28296 0.413155" id="C0_18_169f9ca9fd"/>
     <path d="
M1.34765 -0.0228415
L1.3962 2.84193
L4.06865 1.4486
L0.254129 14.9936
L-4.01723 1.58565
L-1.29909 2.88761
L-1.34765 0.0228415
L1.34765 -0.0228415" id="C0_19_9d0802a4ce"/>
     <path d="
M1.2698 -0.451964
L1.94012 1.4313
L4.02776 -0.742433
L4.73799 13.3115
L-3.59106 1.96935
L-0.59949 2.33523
L-1.2698 0.451964
L1.2698 -0.451964" id="C0_1a_b403dc6bf0"/>
     <path d="
M1.01138 -0.702827
L1.71421 0.308558
L3.03415 -2.10848
L7.02827 10.1138
L-3.03415 2.10848
L-0.308558 1.71421
L-1.01138 0.702827
L1.01138 -0.702827" id="C0_1b_9878bd15c7"/>
     <path d="
M0.724905 -0.749478
L1.47438 -0.0245731
L2.17472 -2.24844
L7.49478 7.24905
L-2.17472 2.24844
L0.0245731 1.47438
L-0.724905 0.749478
L0.724905 -0.749478" id="C0_1c_e3933e855d"/>
     <path d="
M0.519893 -0.713752
L1.23365 -0.193859
L1.55968 -2.14126
L7.13752 5.19893
L-1.55968 2.14126
L0.193859 1.23365
L-0.519893 0.713752
L0.519893 -0.713752" id="C0_1d_3342c03ccd"/>
     <path d="
M0.304806 0.773739
L-0.468933 1.07855
L0.914419 2.32122
L-7.73739 3.04806
L-0.914419 -2.32122
L-1.07855 -0.468933
L-0.304806 -0.773739
L0.304806 0.773739" id="C0_1e_64ffb0c251"/>
     <path d="
M0.444604 0.900608
L-0.456004 1.34521
L1.33381 2.70182
L-9.00608 4.44604
L-1.33381 -2.70182
L-1.34521 -0.456004
L-0.444604 -0.900608
L0.444604 0.900608" id="C0_1f_c20a874eea"/>
     <path d="
M0.689927 1.04374
L-0.353809 1.73366
L2.06978 3.13121
L-10.4374 6.89927
L-2.06978 -3.13121
L-1.73366 -0.353809
L-0.689927 -1.04374
L0.689927 1.04374" id="C0_20_eed458d33e"/>
     <path d="
M0.953067 0.953067
L-1.8139 3.72003
L1.0453 4.6731
L-11.3446 11.3446
L-4.6731 -1.0453
L-3.72003 1.8139
L-0.953067 -0.953067
L0.953067 0.953067" id="C0_21_c8a78c07a2"/>
     <path d="
M1.21169 0.590313
L-2.40888 8.02203
L0.604818 7.99096
L-8.93339 18.337
L-6.66535 4.44908
L-4.83227 6.8414
L-1.21169 -0.590313
L1.21169 0.590313" id="C0_22_f7daa994f1"/>
     <path d="
M1.3474 -0.0345486
L1.61785 10.5131
L4.2781 9.0966
L0.58139 22.6742
L-3.80629 9.3039
L-1.07694 10.5822
L-1.3474 0.0345486
L1.3474 -0.0345486" id="C0_23_f2e782b6ec"/>
     <path d="
M1.18673 -0.639011
L4.90679 6.26966
L6.64125 3.8049
L9.47115 17.5893
L-0.47916 7.63897
L2.53332 7.54768
L-1.18673 0.639011
L1.18673 -0.639011" id="C0_24_1e38373943"/>
     <path d="
M0.92895 -0.976588
L3.47005 1.44055
L4.35136 -1.44157
L11.3304 10.7777
L-1.22234 4.41796
L1.61215 3.39373
L-0.92895 0.976588
L0.92895 -0.976588" id="C0_25_28237ae204"/>
     <path d="
M0.65834 -1.02971
L1.68805 -0.371371
L1.97502 -3.08913
L10.2971 6.5834
L-1.97502 3.08913
L0.371371 1.68805
L-0.65834 1.02971
L0.65834 -1.02971" id="C0_26_4ff62f8f73"/>
     <path d="
M0.427 -0.886847
L1.31385 -0.459846
L1.281 -2.66054
L8.86847 4.27
L-1.281 2.66054
L0.459846 1.31385
L-0.427 0.886847
L0.427 -0.886847" id="C0_27_7185073c27"/>
     <path d="
M0.165446 0.862062
L-0.696616 1.02751
L0.496339 2.58619
L-8.62062 1.65446
L-0.496339 -2.58619
L-1.02751 -0.696616
L-0.165446 -0.862062
L0.165446 0.862062" id="C0_28_098d470267"/>
     <path d="
M0.25466 1.05885
L-0.804189 1.31351
L0.76398 3.17655
L-10.5885 2.5466
L-0.76398 -3.17655
L-1.31351 -0.804189
L-0.25466 -1.05885
L0.25466 1.05885" id="C0_29_6a31907929"/>
     <path d="
M0.413155 1.28296
L-1.62892 1.94057
L0.480349 4.09333
L-13.5887 4.37601
L-1.99858 -3.60441
L-2.45523 -0.625339
L-0.413155 -1.28296
L0.413155 1.28296" id="C0_2a_d7f31d86ea"/>
     <path d="
M0.590313 1.21169
L-6.8414 4.83227
L-4.44908 6.66535
L-18.337 8.93339
L-7.99096 -0.604818
L-8.02203 2.40888
L-0.590313 -1.21169
L0.590313 1.21169" id="C0_2b_89ec2046d5"/>
     <path d="
M0.953067 0.953067
L-13.7555 15.6617
L-10.8963 16.6147
L-23.2862 23.2862
L-16.6147 10.8963
L-15.6617 13.7555
L-0.953067 -0.953067
L0.953067 0.953067" id="C0_2c_449f2f9224"/>
     <path d="
M1.34598 -0.0708409
L3.15282 34.2591
L5.77393 32.7715
L2.44441 46.4438
L-2.30193 33.1965
L0.460864 34.4008
L-1.34598 0.0708409
L1.34598 -0.0708409" id="C0_2d_d73c86a6b4"/>
     <path d="
M0.904284 -0.999472
L15.0791 11.8254
L15.8882 8.92214
L23.1701 20.9634
L10.4625 14.919
L13.2705 13.8243
L-0.904284 0.999472
L0.904284 -0.999472" id="C0_2e_7d064b7662"/>
     <path d="
M0.566714 -1.22291
L7.32738 1.91008
L7.2379 -1.10245
L17.7669 8.23342
L3.83762 6.23501
L6.19395 4.3559
L-0.566714 1.22291
L0.566714 -1.22291" id="C0_2f_8ddd38f010"/>
     <path d="
M0.400826 -1.28686
L2.04236 -0.775564
L1.55715 -3.75011
L13.2233 4.11873
L-0.847806 3.97105
L1.24071 1.79816
L-0.400826 1.28686
L0.400826 -1.28686" id="C0_30_3d944fc8b1"/>
     <path d="
M0.242887 -1.03547
L1.27835 -0.792579
L0.728661 -3.1064
L10.3547 2.42887
L-0.728661 3.1064
L0.792579 1.27835
L-0.242887 1.03547
L0.242887 -1.03547" id="C0_31_8039c44ef1"/>
     <path d="
M-0.0090275 0.893723
L-0.90275 0.884695
L-0.0270825 2.68117
L-8.93723 -0.090275
L0.0270825 -2.68117
L-0.884695 -0.90275
L0.0090275 -0.893723
L-0.0090275 0.893723" id="C0_32_b0cb883f9e"/>
     <path d="
M-0.0141762 1.11992
L-1.13409 1.10574
L-0.0425285 3.35975
L-11.1992 -0.141762
L0.0425285 -3.35975
L-1.10574 -1.13409
L0.0141762 -1.11992
L-0.0141762 1.11992" id="C0_33_fb5d0bb386"/>
     <path d="
M-0.0228415 1.34765
L-2.88761 1.29909
L-1.58565 4.01723
L-14.9936 -0.254129
L-1.4486 -4.06865
L-2.84193 -1.3962
L0.0228415 -1.34765
L-0.0228415 1.34765" id="C0_34_28bc9c78f5"/>
     <path d="
M-0.0345486 1.3474
L-10.5822 1.07694
L-9.3039 3.80629
L-22.6742 -0.58139
L-9.0966 -4.2781
L-10.5131 -1.61785
L0.0345486 -1.3474
L-0.0345486 1.3474" id="C0_35_308bf8aae7"/>
     <path d="
M-0.0708409 1.34598
L-34.4008 -0.460864
L-33.1965 2.30193
L-46.4438 -2.44441
L-32.7715 -5.77393
L-34.2591 -3.15282
L0.0708409 -1.34598
L-0.0708409 1.34598" id="C0_36_7decc8ac22"/>
     <path d="
M1.34784 0
L0.67392 -1.16726
L-0.67392 -1.16726
L-1.34784 -1.65063e-16
L-0.67392 1.16726
L0.67392 1.16726
L1.34784 3.30126e-16
L0.67392 -1.16726" id="C0_37_9387e560d9"/>
     <path d="
M-0.0641102 -1.34631
L29.8607 -2.7713
L28.3861 -5.39982
L42.0416 -2.00198
L28.7708 2.67806
L29.9889 -0.0786756
L0.0641102 1.34631
L-0.0641102 -1.34631" id="C0_38_f63da55f30"/>
     <path d="
M-0.0328644 -1.34744
L9.40969 -1.57775
L7.99652 -4.23976
L21.5695 -0.526086
L8.19371 3.84488
L9.47542 1.11713
L0.0328644 1.34744
L-0.0328644 -1.34744" id="C0_39_dbb94541b6"/>
     <path d="
M-0.0220928 -1.34766
L2.35124 -1.38657
L0.959399 -4.05979
L14.5023 -0.237742
L1.09196 4.02616
L2.39543 1.30875
L0.0220928 1.34766
L-0.0220928 -1.34766" id="C0_3a_6d07e532d5"/>
     <path d="
M-0.0134849 -1.09227
L1.07879 -1.10576
L-0.0404546 -3.27682
L10.9227 -0.134849
L0.0404546 3.27682
L1.10576 1.07879
L0.0134849 1.09227
L-0.0134849 -1.09227" id="C0_3b_41bae018b3"/>
     <path d="
M-0.181433 0.855328
L-1.03676 0.673895
L-0.5443 2.56598
L-8.55328 -1.81433
L0.5443 -2.56598
L-0.673895 -1.03676
L0.181433 -0.855328
L-0.181433 0.855328" id="C0_3c_3ab2007377"/>
     <path d="
M-0.278096 1.04617
L-1.32427 0.768076
L-0.834289 3.13852
L-10.4617 -2.78096
L0.834289 -3.13852
L-0.768076 -1.32427
L0.278096 -1.04617
L-0.278096 1.04617" id="C0_3d_25575e63ef"/>
     <path d="
M-0.451964 1.2698
L-2.33523 0.59949
L-1.96935 3.59106
L-13.3115 -4.73799
L0.742433 -4.02776
L-1.4313 -1.94012
L0.451964 -1.2698
L-0.451964 1.2698" id="C0_3e_81b0c5028f"/>
     <path d="
M-0.639011 1.18673
L-7.54768 -2.53332
L-7.63897 0.47916
L-17.5893 -9.47115
L-3.8049 -6.64125
L-6.26966 -4.90679
L0.639011 -1.18673
L-0.639011 1.18673" id="C0_3f_4035ca7836"/>
     <path d="
M-0.999472 0.904284
L-13.8243 -13.2705
L-14.919 -10.4625
L-20.9634 -23.1701
L-8.92214 -15.8882
L-11.8254 -15.0791
L0.999472 -0.904284
L-0.999472 0.904284" id="C0_40_6b0fcc1aa2"/>
     <path d="
M-1.34631 -0.0641102
L0.0786756 -29.9889
L-2.67806 -28.7708
L2.00198 -42.0416
L5.39982 -28.3861
L2.7713 -29.8607
L1.34631 0.0641102
L-1.34631 -0.0641102" id="C0_41_b375382de3"/>
     <path d="
M-0.953067 -0.953067
L11.5378 -13.4439
L8.67861 -14.397
L21.0685 -21.0685
L14.397 -8.67861
L13.4439 -11.5378
L0.953067 0.953067
L-0.953067 -0.953067" id="C0_42_a9f39000d7"/>
     <path d="
M-0.614448 -1.19964
L5.68587 -4.42663
L3.25734 -6.21145
L17.097 -8.75702
L6.94402 0.986365
L6.91476 -2.02735
L0.614448 1.19964
L-0.614448 -1.19964" id="C0_43_3e922f118c"/>
     <path d="
M-0.438739 -1.27443
L1.06047 -1.79055
L-1.09144 -3.90068
L12.9691 -4.46478
L1.54099 3.74592
L1.93795 0.758312
L0.438739 1.27443
L-0.438739 -1.27443" id="C0_44_aba4236e2d"/>
     <path d="
M-0.265387 -1.02364
L0.758249 -1.28902
L-0.796161 -3.07091
L10.2364 -2.65387
L0.796161 3.07091
L1.28902 0.758249
L0.265387 1.02364
L-0.265387 -1.02364" id="C0_45_ad97217b86"/>
     <path d="
M-0.315972 0.762957
L-1.07893 0.446985
L-0.947916 2.28887
L-7.62957 -3.15972
L0.947916 -2.28887
L-0.446985 -1.07893
L0.315972 -0.762957
L-0.315972 0.762957" id="C0_46_b4b850f37c"/>
     <path d="
M-0.457964 0.882419
L-1.34038 0.424455
L-1.37389 2.64726
L-8.82419 -4.57964
L1.37389 -2.64726
L-0.424455 -1.34038
L0.457964 -0.882419
L-0.457964 0.882419" id="C0_47_3a64f36ad3"/>
     <path d="
M-0.702827 1.01138
L-1.71421 0.308558
L-2.10848 3.03415
L-10.1138 -7.02827
L2.10848 -3.03415
L-0.308558 -1.71421
L0.702827 -1.01138
L-0.702827 1.01138" id="C0_48_7162700cc0"/>
     <path d="
M-0.976588 0.92895
L-3.39373 -1.61215
L-4.41796 1.22234
L-10.7777 -11.3304
L1.44157 -4.35136
L-1.44055 -3.47005
L0.976588 -0.92895
L-0.976588 0.92895" id="C0_49_7db6dad107"/>
     <path d="
M-1.22291 0.566714
L-4.3559 -6.19395
L-6.23501 -3.83762
L-8.23342 -17.7669
L1.10245 -7.2379
L-1.91008 -7.32738
L1.22291 -0.566714
L-1.22291 0.566714" id="C0_4a_179110eed7"/>
     <path d="
M-1.34744 -0.0328644
L-1.11713 -9.47542
L-3.84488 -8.19371
L0.526086 -21.5695
L4.23976 -7.99652
L1.57775 -9.40969
L1.34744 0.0328644
L-1.34744 -0.0328644" id="C0_4b_a4fc51896b"/>
     <path d="
M-1.19964 -0.614448
L2.02735 -6.91476
L-0.986365 -6.94402
L8.75702 -17.097
L6.21145 -3.25734
L4.42663 -5.68587
L1.19964 0.614448
L-1.19964 -0.614448" id="C0_4c_5cf50d8811"/>
     <path d="
M-0.953067 -0.953067
L1.2605 -3.16664
L-1.5987 -4.1197
L10.7912 -10.7912
L4.1197 1.5987
L3.16664 -1.2605
L0.953067 0.953067
L-0.953067 -0.953067" id="C0_4d_b7811ecf7f"/>
     <path d="
M-0.671602 -0.999212
L0.327611 -1.67081
L-2.0148 -2.99764
L9.99212 -6.71602
L2.0148 2.99764
L1.67081 0.327611
L0.671602 0.999212
L-0.671602 -0.999212" id="C0_4e_a74e88d291"/>
     <path d="
M-0.440183 -0.869631
L0.429447 -1.30981
L-1.32055 -2.60889
L8.69631 -4.40183
L1.32055 2.60889
L1.30981 0.429447
L0.440183 0.869631
L-0.440183 -0.869631" id="C0_4f_efa042ed23"/>
     <path d="
M-0.399182 0.647853
L-1.04704 0.248671
L-1.19755 1.94356
L-6.47853 -3.99182
L1.19755 -1.94356
L-0.248671 -1.04704
L0.399182 -0.647853
L-0.399182 0.647853" id="C0_50_c3d08e1663"/>
     <path d="
M-0.541833 0.701719
L-1.24355 0.159885
L-1.6255 2.10516
L-7.01719 -5.41833
L1.6255 -2.10516
L-0.159885 -1.24355
L0.541833 -0.701719
L-0.541833 0.701719" id="C0_51_4278997592"/>
     <path d="
M-0.749478 0.724905
L-1.47438 -0.0245731
L-2.24844 2.17472
L-7.24905 -7.49478
L2.24844 -2.17472
L0.0245731 -1.47438
L0.749478 -0.724905
L-0.749478 0.724905" id="C0_52_05930f2615"/>
     <path d="
M-1.02971 0.65834
L-1.68805 -0.371371
L-3.08913 1.97502
L-6.5834 -10.2971
L3.08913 -1.97502
L0.371371 -1.68805
L1.02971 -0.65834
L-1.02971 0.65834" id="C0_53_0d8785cdb1"/>
     <path d="
M-1.28686 0.400826
L-1.79816 -1.24071
L-3.97105 0.847806
L-4.11873 -13.2233
L3.75011 -1.55715
L0.775564 -2.04236
L1.28686 -0.400826
L-1.28686 0.400826" id="C0_54_c08322bce5"/>
     <path d="
M-1.34766 -0.0220928
L-1.30875 -2.39543
L-4.02616 -1.09196
L0.237742 -14.5023
L4.05979 -0.959399
L1.38657 -2.35124
L1.34766 0.0220928
L-1.34766 -0.0220928" id="C0_55_d765c982be"/>
     <path d="
M-1.27443 -0.438739
L-0.758312 -1.93795
L-3.74592 -1.54099
L4.46478 -12.9691
L3.90068 1.09144
L1.79055 -1.06047
L1.27443 0.438739
L-1.27443 -0.438739" id="C0_56_a66b6e08f7"/>
     <path d="
M-0.999212 -0.671602
L-0.327611 -1.67081
L-2.99764 -2.0148
L6.71602 -9.99212
L2.99764 2.0148
L1.67081 -0.327611
L0.999212 0.671602
L-0.999212 -0.671602" id="C0_57_4c188d5ee8"/>
     <path d="
M-0.725308 -0.725308
L1.4964e-16 -1.45062
L-2.17592 -2.17592
L7.25308 -7.25308
L2.17592 2.17592
L1.45062 1.4964e-16
L0.725308 0.725308
L-0.725308 -0.725308" id="C0_58_5f32fbcbb3"/>
     <path d="
M-0.52497 -0.697092
L0.172121 -1.22206
L-1.57491 -2.09127
L6.97092 -5.2497
L1.57491 2.09127
L1.22206 0.172121
L0.52497 0.697092
L-0.52497 -0.697092" id="C0_59_9a8116934e"/>
     <path d="
M-0.438057 0.535404
L-0.973461 0.0973461
L-1.31417 1.60621
L-5.35404 -4.38057
L1.31417 -1.60621
L-0.0973461 -0.973461
L0.438057 -0.535404
L-0.438057 0.535404" id="C0_5a_e50e9f11f7"/>
     <path d="
M-0.559873 0.546049
L-1.10592 -0.013824
L-1.67962 1.63815
L-5.46049 -5.59873
L1.67962 -1.63815
L0.013824 -1.10592
L0.559873 -0.546049
L-0.559873 0.546049" id="C0_5b_c377510ac2"/>
     <path d="
M-0.713752 0.519893
L-1.23365 -0.193859
L-2.14126 1.55968
L-5.19893 -7.13752
L2.14126 -1.55968
L0.193859 -1.23365
L0.713752 -0.519893
L-0.713752 0.519893" id="C0_5c_bec448c840"/>
     <path d="
M-0.886847 0.427
L-1.31385 -0.459846
L-2.66054 1.281
L-4.27 -8.86847
L2.66054 -1.281
L0.459846 -1.31385
L0.886847 -0.427
L-0.886847 0.427" id="C0_5d_bb77f27930"/>
     <path d="
M-1.03547 0.242887
L-1.27835 -0.792579
L-3.1064 0.728661
L-2.42887 -10.3547
L3.1064 -0.728661
L0.792579 -1.27835
L1.03547 -0.242887
L-1.03547 0.242887" id="C0_5e_ae7f63d611"/>
     <path d="
M-1.09227 -0.0134849
L-1.07879 -1.10576
L-3.27682 -0.0404546
L0.134849 -10.9227
L3.27682 0.0404546
L1.10576 -1.07879
L1.09227 0.0134849
L-1.09227 -0.0134849" id="C0_5f_cb7948345b"/>
     <path d="
M-1.02364 -0.265387
L-0.758249 -1.28902
L-3.07091 -0.796161
L2.65387 -10.2364
L3.07091 0.796161
L1.28902 -0.758249
L1.02364 0.265387
L-1.02364 -0.265387" id="C0_60_6112ad8a50"/>
     <path d="
M-0.869631 -0.440183
L-0.429447 -1.30981
L-2.60889 -1.32055
L4.40183 -8.69631
L2.60889 1.32055
L1.30981 -0.429447
L0.869631 0.440183
L-0.869631 -0.440183" id="C0_61_6dd8cada5a"/>
     <path d="
M-0.697092 -0.52497
L-0.172121 -1.22206
L-2.09127 -1.57491
L5.2497 -6.97092
L2.09127 1.57491
L1.22206 -0.172121
L0.697092 0.52497
L-0.697092 -0.52497" id="C0_62_6853954d14"/>
     <path d="
M-0.54622 -0.54622
L7.48202e-17 -1.09244
L-1.63866 -1.63866
L5.4622 -5.4622
L1.63866 1.63866
L1.09244 7.48202e-17
L0.54622 0.54622
L-0.54622 -0.54622" id="C0_63_1824a84249"/>
    </defs>
    <g clip-path="url(#pe983b0043e)">
     <use x="-21.6" xlink:href="#C0_0_f403b83836" y="317.196"/>
    </g>
    <g clip-path="url(#pe983b0043e)">
     <use x="23.7818181818" xlink:href="#C0_1_5284b64dfb" y="317.196"/>
    </g>
    <g clip-path="url(#pe983b0043e)">
     <use x="69.1636363636" xlink:href="#C0_2_993f090170" y="317.196"/>
    </g>
    <g clip-path="url(#pe983b0043e)">
     <use x="114.545454545" xlink:href="#C0_3_e7ddc265ea" y="317.196"/>
    </g>
    <g clip-path="url(#pe983b0043e)">
     <use x="159.927272727" xlink:href="#C0_4_1f2fc3303c" y="317.196"/>
    </g>
    <g clip-path="url(#pe983b0043e)">
     <use x="205.309090909" xlink:href="#C0_5_21488f7719" y="317.196"/>
    </g>
    <g clip-path="url(#pe983b0043e)">
     <use x="250.690909091" xlink:href="#C0_6_715c71343c" y="317.196"/>
    </g>
    <g clip-path="url(#pe983b0043e)">
     <use x="296.072727273" xlink:href="#C0_7_8d2159f158" y="317.196"/>
    </g>
    <g clip-path="url(#pe983b0043e)">
     <use x="341.454545455" xlink:href="#C0_8_dad18f2cbd" y="317.196"/>
    </g>
    <g clip-path="url(#pe983b0043e)">
     <use x="386.836363636" xlink:href="#C0_9_7914a3140c" y="317.196"/>
    </g>
    <g clip-path="url(#pe983b0043e)">
     <use x="-21.6" xlink:href="#C0_a_193be23ceb" y="285.479636364"/>
    </g>
    <g clip-path="url(#pe983b0043e)">
     <use x="23.7818181818" xlink:href="#C0_b_2ffda31270" y="285.479636364"/>
    </g>
    <g clip-path="url(#pe983b0043e)">
     <use x="69.1636363636" xlink:href="#C0_c_34bc4a6563" y="285.479636364"/>
    </g>
    <g clip-path="url(#pe983b0043e)">
     <use x="114.545454545" xlink:href="#C0_d_661f740fb3" y="285.479636364"/>
    </g>
    <g clip-path="url(#pe983b0043e)">
     <use x="159.927272727" xlink:href="#C0_e_ad5fd48bb6" y="285.479636364"/>
    </g>
    <g clip-path="url(#pe983b0043e)">
     <use x="205.309090909" xlink:href="#C0_f_6820b6fdd5" y="285.479636364"/>
    </g>
    <g clip-path="url(#pe983b0043e)">
     <use x="250.690909091" xlink:href="#C0_10_1f5be58f23" y="285.479636364"/>
    </g>
    <g clip-path="url(#pe983b0043e)">
     <use x="296.072727273" xlink:href="#C0_11_9c547467cf" y="285.479636364"/>
    </g>
    <g clip-path="url(#pe983b0043e)">
     <use x="341.454545455" xlink:href="#C0_12_8a1a33dd88" y="285.479636364"/>
    </g>
    <g clip-path="url(#pe983b0043e)">
     <use x="386.836363636" xlink:href="#C0_13_b3f79f2e22" y="285.479636364"/>
    </g>
    <g clip-path="url(#pe983b0043e)">
     <use x="-21.6" xlink:href="#C0_14_ba32470dc4" y="253.763272727"/>
    </g>
    <g clip-path="url(#pe983b0043e)">
     <use x="23.7818181818" xlink:href="#C0_15_544355cafb" y="253.763272727"/>
    </g>
    <g clip-path="url(#pe983b0043e)">
     <use x="69.1636363636" xlink:href="#C0_16_ff6233ccf4" y="253.763272727"/>
    </g>
    <g clip-path="url(#pe983b0043e)">
     <use x="114.545454545" xlink:href="#C0_17_c2053d9fb4" y="253.763272727"/>
    </g>
    <g clip-path="url(#pe983b0043e)">
     <use x="159.927272727" xlink:href="#C0_18_169f9ca9fd" y="253.763272727"/>
    </g>
    <g clip-path="url(#pe983b0043e)">
     <use x="205.309090909" xlink:href="#C0_19_9d0802a4ce" y="253.763272727"/>
    </g>
    <g clip-path="url(#pe983b0043e)">
     <use x="250.690909091" xlink:href="#C0_1a_b403dc6bf0" y="253.763272727"/>
    </g>
    <g clip-path="url(#pe983b0043e)">
     <use x="296.072727273" xlink:href="#C0_1b_9878bd15c7" y="253.763272727"/>
    </g>
    <g clip-path="url(#pe983b0043e)">
     <use x="341.454545455" xlink:href="#C0_1c_e3933e855d" y="253.763272727"/>
    </g>
    <g clip-path="url(#pe983b0043e)">
     <use x="386.836363636" xlink:href="#C0_1d_3342c03ccd" y="253.763272727"/>
    </g>
    <g clip-path="url(#pe983b0043e)">
     <use x="-21.6" xlink:href="#C0_1e_64ffb0c251" y="222.046909091"/>
    </g>
    <g clip-path="url(#pe983b0043e)">
     <use x="23.7818181818" xlink:href="#C0_1f_c20a874eea" y="222.046909091"/>
    </g>
    <g clip-path="url(#pe983b0043e)">
     <use x="69.1636363636" xlink:href="#C0_20_eed458d33e" y="222.046909091"/>
    </g>
    <g clip-path="url(#pe983b0043e)">
     <use x="114.545454545" xlink:href="#C0_21_c8a78c07a2" y="222.046909091"/>
    </g>
    <g clip-path="url(#pe983b0043e)">
     <use x="159.927272727" xlink:href="#C0_22_f7daa994f1" y="222.046909091"/>
    </g>
    <g clip-path="url(#pe983b0043e)">
     <use x="205.309090909" xlink:href="#C0_23_f2e782b6ec" y="222.046909091"/>
    </g>
    <g clip-path="url(#pe983b0043e)">
     <use x="250.690909091" xlink:href="#C0_24_1e38373943" y="222.046909091"/>
    </g>
    <g clip-path="url(#pe983b0043e)">
     <use x="296.072727273" xlink:href="#C0_25_28237ae204" y="222.046909091"/>
    </g>
    <g clip-path="url(#pe983b0043e)">
     <use x="341.454545455" xlink:href="#C0_26_4ff62f8f73" y="222.046909091"/>
    </g>
    <g clip-path="url(#pe983b0043e)">
     <use x="386.836363636" xlink:href="#C0_27_7185073c27" y="222.046909091"/>
    </g>
    <g clip-path="url(#pe983b0043e)">
     <use x="-21.6" xlink:href="#C0_28_098d470267" y="190.330545455"/>
    </g>
    <g clip-path="url(#pe983b0043e)">
     <use x="23.7818181818" xlink:href="#C0_29_6a31907929" y="190.330545455"/>
    </g>
    <g clip-path="url(#pe983b0043e)">
     <use x="69.1636363636" xlink:href="#C0_2a_d7f31d86ea" y="190.330545455"/>
    </g>
    <g clip-path="url(#pe983b0043e)">
     <use x="114.545454545" xlink:href="#C0_2b_89ec2046d5" y="190.330545455"/>
    </g>
    <g clip-path="url(#pe983b0043e)">
     <use x="159.927272727" xlink:href="#C0_2c_449f2f9224" y="190.330545455"/>
    </g>
    <g clip-path="url(#pe983b0043e)">
     <use x="205.309090909" xlink:href="#C0_2d_d73c86a6b4" y="190.330545455"/>
    </g>
    <g clip-path="url(#pe983b0043e)">
     <use x="250.690909091" xlink:href="#C0_2e_7d064b7662" y="190.330545455"/>
    </g>
    <g clip-path="url(#pe983b0043e)">
     <use x="296.072727273" xlink:href="#C0_2f_8ddd38f010" y="190.330545455"/>
    </g>
    <g clip-path="url(#pe983b0043e)">
     <use x="341.454545455" xlink:href="#C0_30_3d944fc8b1" y="190.330545455"/>
    </g>
    <g clip-path="url(#pe983b0043e)">
     <use x="386.836363636" xlink:href="#C0_31_8039c44ef1" y="190.330545455"/>
    </g>
    <g clip-path="url(#pe983b0043e)">
     <use x="-21.6" xlink:href="#C0_32_b0cb883f9e" y="158.614181818"/>
    </g>
    <g clip-path="url(#pe983b0043e)">
     <use x="23.7818181818" xlink:href="#C0_33_fb5d0bb386" y="158.614181818"/>
    </g>
    <g clip-path="url(#pe983b0043e)">
     <use x="69.1636363636" xlink:href="#C0_34_28bc9c78f5" y="158.614181818"/>
    </g>
    <g clip-path="url(#pe983b0043e)">
     <use x="114.545454545" xlink:href="#C0_35_308bf8aae7" y="158.614181818"/>
    </g>
    <g clip-path="url(#pe983b0043e)">
     <use x="159.927272727" xlink:href="#C0_36_7decc8ac22" y="158.614181818"/>
    </g>
    <g clip-path="url(#pe983b0043e)">
     <use x="205.309090909" xlink:href="#C0_37_9387e560d9" y="158.614181818"/>
    </g>
    <g clip-path="url(#pe983b0043e)">
     <use x="250.690909091" xlink:href="#C0_38_f63da55f30" y="158.614181818"/>
    </g>
    <g clip-path="url(#pe983b0043e)">
     <use x="296.072727273" xlink:href="#C0_39_dbb94541b6" y="158.614181818"/>
    </g>
    <g clip-path="url(#pe983b0043e)">
     <use x="341.454545455" xlink:href="#C0_3a_6d07e532d5" y="158.614181818"/>
    </g>
    <g clip-path="url(#pe983b0043e)">
     <use x="386.836363636" xlink:href="#C0_3b_41bae018b3" y="158.614181818"/>
    </g>
    <g clip-path="url(#pe983b0043e)">
     <use x="-21.6" xlink:href="#C0_3c_3ab2007377" y="126.897818182"/>
    </g>
    <g clip-path="url(#pe983b0043e)">
     <use x="23.7818181818" xlink:href="#C0_3d_25575e63ef" y="126.897818182"/>
    </g>
    <g clip-path="url(#pe983b0043e)">
     <use x="69.1636363636" xlink:href="#C0_3e_81b0c5028f" y="126.897818182"/>
    </g>
    <g clip-path="url(#pe983b0043e)">
     <use x="114.545454545" xlink:href="#C0_3f_4035ca7836" y="126.897818182"/>
    </g>
    <g clip-path="url(#pe983b0043e)">
     <use x="159.927272727" xlink:href="#C0_40_6b0fcc1aa2" y="126.897818182"/>
    </g>
    <g clip-path="url(#pe983b0043e)">
     <use x="205.309090909" xlink:href="#C0_41_b375382de3" y="126.897818182"/>
    </g>
    <g clip-path="url(#pe983b0043e)">
     <use x="250.690909091" xlink:href="#C0_42_a9f39000d7" y="126.897818182"/>
    </g>
    <g clip-path="url(#pe983b0043e)">
     <use x="296.072727273" xlink:href="#C0_43_3e922f118c" y="126.897818182"/>
    </g>
    <g clip-path="url(#pe983b0043e)">
     <use x="341.454545455" xlink:href="#C0_44_aba4236e2d" y="126.897818182"/>
    </g>
    <g clip-path="url(#pe983b0043e)">
     <use x="386.836363636" xlink:href="#C0_45_ad97217b86" y="126.897818182"/>
    </g>
    <g clip-path="url(#pe983b0043e)">
     <use x="-21.6" xlink:href="#C0_46_b4b850f37c" y="95.1814545455"/>
    </g>
    <g clip-path="url(#pe983b0043e)">
     <use x="23.7818181818" xlink:href="#C0_47_3a64f36ad3" y="95.1814545455"/>
    </g>
    <g clip-path="url(#pe983b0043e)">
     <use x="69.1636363636" xlink:href="#C0_48_7162700cc0" y="95.1814545455"/>
    </g>
    <g clip-path="url(#pe983b0043e)">
     <use x="114.545454545" xlink:href="#C0_49_7db6dad107" y="95.1814545455"/>
    </g>
    <g clip-path="url(#pe983b0043e)">
     <use x="159.927272727" xlink:href="#C0_4a_179110eed7" y="95.1814545455"/>
    </g>
    <g clip-path="url(#pe983b0043e)">
     <use x="205.309090909" xlink:href="#C0_4b_a4fc51896b" y="95.1814545455"/>
    </g>
    <g clip-path="url(#pe983b0043e)">
     <use x="250.690909091" xlink:href="#C0_4c_5cf50d8811" y="95.1814545455"/>
    </g>
    <g clip-path="url(#pe983b0043e)">
     <use x="296.072727273" xlink:href="#C0_4d_b7811ecf7f" y="95.1814545455"/>
    </g>
    <g clip-path="url(#pe983b0043e)">
     <use x="341.454545455" xlink:href="#C0_4e_a74e88d291" y="95.1814545455"/>
    </g>
    <g clip-path="url(#pe983b0043e)">
     <use x="386.836363636" xlink:href="#C0_4f_efa042ed23" y="95.1814545455"/>
    </g>
    <g clip-path="url(#pe983b0043e)">
     <use x="-21.6" xlink:href="#C0_50_c3d08e1663" y="63.4650909091"/>
    </g>
    <g clip-path="url(#pe983b0043e)">
     <use x="23.7818181818" xlink:href="#C0_51_4278997592" y="63.4650909091"/>
    </g>
    <g clip-path="url(#pe983b0043e)">
     <use x="69.1636363636" xlink:href="#C0_52_05930f2615" y="63.4650909091"/>
    </g>
    <g clip-path="url(#pe983b0043e)">
     <use x="114.545454545" xlink:href="#C0_53_0d8785cdb1" y="63.4650909091"/>
    </g>
    <g clip-path="url(#pe983b0043e)">
     <use x="159.927272727" xlink:href="#C0_54_c08322bce5" y="63.4650909091"/>
    </g>
    <g clip-path="url(#pe983b0043e)">
     <use x="205.309090909" xlink:href="#C0_55_d765c982be" y="63.4650909091"/>
    </g>
    <g clip-path="url(#pe983b0043e)">
     <use x="250.690909091" xlink:href="#C0_56_a66b6e08f7" y="63.4650909091"/>
    </g>
    <g clip-path="url(#pe983b0043e)">
     <use x="296.072727273" xlink:href="#C0_57_4c188d5ee8" y="63.4650909091"/>
    </g>
    <g clip-path="url(#pe983b0043e)">
     <use x="341.454545455" xlink:href="#C0_58_5f32fbcbb3" y="63.4650909091"/>
    </g>
    <g clip-path="url(#pe983b0043e)">
     <use x="386.836363636" xlink:href="#C0_59_9a8116934e" y="63.4650909091"/>
    </g>
    <g clip-path="url(#pe983b0043e)">
     <use x="-21.6" xlink:href="#C0_5a_e50e9f11f7" y="31.7487272727"/>
    </g>
    <g clip-path="url(#pe983b0043e)">
     <use x="23.7818181818" xlink:href="#C0_5b_c377510ac2" y="31.7487272727"/>
    </g>
    <g clip-path="url(#pe983b0043e)">
     <use x="69.1636363636" xlink:href="#C0_5c_bec448c840" y="31.7487272727"/>
    </g>
    <g clip-path="url(#pe983b0043e)">
     <use x="114.545454545" xlink:href="#C0_5d_bb77f27930" y="31.7487272727"/>
    </g>
    <g clip-path="url(#pe983b0043e)">
     <use x="159.927272727" xlink:href="#C0_5e_ae7f63d611" y="31.7487272727"/>
    </g>
    <g clip-path="url(#pe983b0043e)">
     <use x="205.309090909" xlink:href="#C0_5f_cb7948345b" y="31.7487272727"/>
    </g>
    <g clip-path="url(#pe983b0043e)">
     <use x="250.690909091" xlink:href="#C0_60_6112ad8a50" y="31.7487272727"/>
    </g>
    <g clip-path="url(#pe983b0043e)">
     <use x="296.072727273" xlink:href="#C0_61_6dd8cada5a" y="31.7487272727"/>
    </g>
    <g clip-path="url(#pe983b0043e)">
     <use x="341.454545455" xlink:href="#C0_62_6853954d14" y="31.7487272727"/>
    </g>
    <g clip-path="url(#pe983b0043e)">
     <use x="386.836363636" xlink:href="#C0_63_1824a84249" y="31.7487272727"/>
    </g>
   </g>
  </g>
 </g>
 <defs>
  <clipPath id="pe983b0043e">
   <rect height="313.992" width="449.28" x="-21.6" y="3.204"/>
  </clipPath>
 </defs>
</svg>
