<?xml version="1.0" encoding="utf-8" standalone="no"?>
<!DOCTYPE svg PUBLIC "-//W3C//DTD SVG 1.1//EN"
  "http://www.w3.org/Graphics/SVG/1.1/DTD/svg11.dtd">
<!-- Created with matplotlib (http://matplotlib.org/) -->
<svg height="320pt" version="1.1" viewBox="0 0 432 320" width="432pt" xmlns="http://www.w3.org/2000/svg" xmlns:xlink="http://www.w3.org/1999/xlink">
 <defs>
  <style type="text/css">
*{stroke-linecap:butt;stroke-linejoin:round;}
  </style>
 </defs>
 <g id="figure_1">
  <g id="patch_1">
   <path d="
M0 320.4
L432 320.4
L432 0
L0 0
z
" style="fill:none;"/>
  </g>
  <g id="axes_1">
   <g id="Quiver_1">
    <defs>
     <path d="
M-0.646189 -1.18284
L28.1363 -16.9068
L25.6611 -18.6263
L39.428 -21.5396
L29.5382 -11.5292
L29.4287 -14.5411
L0.646189 1.18284
L-0.646189 -1.18284" id="C0_0_98ec955292"/>
     <path d="
M-0.646189 -1.18284
L28.1363 -16.9068
L25.6611 -18.6263
L39.428 -21.5396
L29.5382 -11.5292
L29.4287 -14.5411
L0.646189 1.18284
L-0.646189 -1.18284" id="C0_1_98ec955292"/>
     <path d="
M-0.646189 -1.18284
L28.1363 -16.9068
L25.6611 -18.6263
L39.428 -21.5396
L29.5382 -11.5292
L29.4287 -14.5411
L0.646189 1.18284
L-0.646189 -1.18284" id="C0_2_98ec955292"/>
     <path d="
M-0.646189 -1.18284
L28.1363 -16.9068
L25.6611 -18.6263
L39.428 -21.5396
L29.5382 -11.5292
L29.4287 -14.5411
L0.646189 1.18284
L-0.646189 -1.18284" id="C0_3_98ec955292"/>
     <path d="
M-0.646189 -1.18284
L28.1363 -16.9068
L25.6611 -18.6263
L39.428 -21.5396
L29.5382 -11.5292
L29.4287 -14.5411
L0.646189 1.18284
L-0.646189 -1.18284" id="C0_4_98ec955292"/>
     <path d="
M-0.646189 -1.18284
L28.1363 -16.9068
L25.6611 -18.6263
L39.428 -21.5396
L29.5382 -11.5292
L29.4287 -14.5411
L0.646189 1.18284
L-0.646189 -1.18284" id="C0_5_98ec955292"/>
     <path d="
M-0.646189 -1.18284
L28.1363 -16.9068
L25.6611 -18.6263
L39.428 -21.5396
L29.5382 -11.5292
L29.4287 -14.5411
L0.646189 1.18284
L-0.646189 -1.18284" id="C0_6_98ec955292"/>
     <path d="
M-0.646189 -1.18284
L28.1363 -16.9068
L25.6611 -18.6263
L39.428 -21.5396
L29.5382 -11.5292
L29.4287 -14.5411
L0.646189 1.18284
L-0.646189 -1.18284" id="C0_7_98ec955292"/>
     <path d="
M-0.646189 -1.18284
L28.1363 -16.9068
L25.6611 -18.6263
L39.428 -21.5396
L29.5382 -11.5292
L29.4287 -14.5411
L0.646189 1.18284
L-0.646189 -1.18284" id="C0_8_98ec955292"/>
     <path d="
M-0.646189 -1.18284
L28.1363 -16.9068
L25.6611 -18.6263
L39.428 -21.5396
L29.5382 -11.5292
L29.4287 -14.5411
L0.646189 1.18284
L-0.646189 -1.18284" id="C0_9_98ec955292"/>
     <path d="
M-0.646189 -1.18284
L28.1363 -16.9068
L25.6611 -18.6263
L39.428 -21.5396
L29.5382 -11.5292
L29.4287 -14.5411
L0.646189 1.18284
L-0.646189 -1.18284" id="C0_a_98ec955292"/>
     <path d="
M-0.646189 -1.18284
L28.1363 -16.9068
L25.6611 -18.6263
L39.428 -21.5396
L29.5382 -11.5292
L29.4287 -14.5411
L0.646189 1.18284
L-0.646189 -1.18284" id="C0_b_98ec955292"/>
     <path d="
M-0.646189 -1.18284
L28.1363 -16.9068
L25.6611 -18.6263
L39.428 -21.5396
L29.5382 -11.5292
L29.4287 -14.5411
L0.646189 1.18284
L-0.646189 -1.18284" id="C0_c_98ec955292"/>
     <path d="
M-0.646189 -1.18284
L28.1363 -16.9068
L25.6611 -18.6263
L39.428 -21.5396
L29.5382 -11.5292
L29.4287 -14.5411
L0.646189 1.18284
L-0.646189 -1.18284" id="C0_d_98ec955292"/>
     <path d="
M-0.646189 -1.18284
L28.1363 -16.9068
L25.6611 -18.6263
L39.428 -21.5396
L29.5382 -11.5292
L29.4287 -14.5411
L0.646189 1.18284
L-0.646189 -1.18284" id="C0_e_98ec955292"/>
     <path d="
M-0.646189 -1.18284
L28.1363 -16.9068
L25.6611 -18.6263
L39.428 -21.5396
L29.5382 -11.5292
L29.4287 -14.5411
L0.646189 1.18284
L-0.646189 -1.18284" id="C0_f_98ec955292"/>
     <path d="
M-0.646189 -1.18284
L28.1363 -16.9068
L25.6611 -18.6263
L39.428 -21.5396
L29.5382 -11.5292
L29.4287 -14.5411
L0.646189 1.18284
L-0.646189 -1.18284" id="C0_10_98ec955292"/>
     <path d="
M-0.646189 -1.18284
L28.1363 -16.9068
L25.6611 -18.6263
L39.428 -21.5396
L29.5382 -11.5292
L29.4287 -14.5411
L0.646189 1.18284
L-0.646189 -1.18284" id="C0_11_98ec955292"/>
     <path d="
M-0.646189 -1.18284
L28.1363 -16.9068
L25.6611 -18.6263
L39.428 -21.5396
L29.5382 -11.5292
L29.4287 -14.5411
L0.646189 1.18284
L-0.646189 -1.18284" id="C0_12_98ec955292"/>
     <path d="
M-0.646189 -1.18284
L28.1363 -16.9068
L25.6611 -18.6263
L39.428 -21.5396
L29.5382 -11.5292
L29.4287 -14.5411
L0.646189 1.18284
L-0.646189 -1.18284" id="C0_13_98ec955292"/>
     <path d="
M-0.646189 -1.18284
L28.1363 -16.9068
L25.6611 -18.6263
L39.428 -21.5396
L29.5382 -11.5292
L29.4287 -14.5411
L0.646189 1.18284
L-0.646189 -1.18284" id="C0_14_98ec955292"/>
     <path d="
M-0.646189 -1.18284
L28.1363 -16.9068
L25.6611 -18.6263
L39.428 -21.5396
L29.5382 -11.5292
L29.4287 -14.5411
L0.646189 1.18284
L-0.646189 -1.18284" id="C0_15_98ec955292"/>
     <path d="
M-0.646189 -1.18284
L28.1363 -16.9068
L25.6611 -18.6263
L39.428 -21.5396
L29.5382 -11.5292
L29.4287 -14.5411
L0.646189 1.18284
L-0.646189 -1.18284" id="C0_16_98ec955292"/>
     <path d="
M-0.646189 -1.18284
L28.1363 -16.9068
L25.6611 -18.6263
L39.428 -21.5396
L29.5382 -11.5292
L29.4287 -14.5411
L0.646189 1.18284
L-0.646189 -1.18284" id="C0_17_98ec955292"/>
     <path d="
M-0.646189 -1.18284
L28.1363 -16.9068
L25.6611 -18.6263
L39.428 -21.5396
L29.5382 -11.5292
L29.4287 -14.5411
L0.646189 1.18284
L-0.646189 -1.18284" id="C0_18_98ec955292"/>
     <path d="
M-0.646189 -1.18284
L28.1363 -16.9068
L25.6611 -18.6263
L39.428 -21.5396
L29.5382 -11.5292
L29.4287 -14.5411
L0.646189 1.18284
L-0.646189 -1.18284" id="C0_19_98ec955292"/>
     <path d="
M-0.646189 -1.18284
L28.1363 -16.9068
L25.6611 -18.6263
L39.428 -21.5396
L29.5382 -11.5292
L29.4287 -14.5411
L0.646189 1.18284
L-0.646189 -1.18284" id="C0_1a_98ec955292"/>
     <path d="
M-0.646189 -1.18284
L28.1363 -16.9068
L25.6611 -18.6263
L39.428 -21.5396
L29.5382 -11.5292
L29.4287 -14.5411
L0.646189 1.18284
L-0.646189 -1.18284" id="C0_1b_98ec955292"/>
     <path d="
M-0.646189 -1.18284
L28.1363 -16.9068
L25.6611 -18.6263
L39.428 -21.5396
L29.5382 -11.5292
L29.4287 -14.5411
L0.646189 1.18284
L-0.646189 -1.18284" id="C0_1c_98ec955292"/>
     <path d="
M-0.646189 -1.18284
L28.1363 -16.9068
L25.6611 -18.6263
L39.428 -21.5396
L29.5382 -11.5292
L29.4287 -14.5411
L0.646189 1.18284
L-0.646189 -1.18284" id="C0_1d_98ec955292"/>
     <path d="
M-0.646189 -1.18284
L28.1363 -16.9068
L25.6611 -18.6263
L39.428 -21.5396
L29.5382 -11.5292
L29.4287 -14.5411
L0.646189 1.18284
L-0.646189 -1.18284" id="C0_1e_98ec955292"/>
     <path d="
M-0.646189 -1.18284
L28.1363 -16.9068
L25.6611 -18.6263
L39.428 -21.5396
L29.5382 -11.5292
L29.4287 -14.5411
L0.646189 1.18284
L-0.646189 -1.18284" id="C0_1f_98ec955292"/>
     <path d="
M-0.646189 -1.18284
L28.1363 -16.9068
L25.6611 -18.6263
L39.428 -21.5396
L29.5382 -11.5292
L29.4287 -14.5411
L0.646189 1.18284
L-0.646189 -1.18284" id="C0_20_98ec955292"/>
     <path d="
M-0.646189 -1.18284
L28.1363 -16.9068
L25.6611 -18.6263
L39.428 -21.5396
L29.5382 -11.5292
L29.4287 -14.5411
L0.646189 1.18284
L-0.646189 -1.18284" id="C0_21_98ec955292"/>
     <path d="
M-0.646189 -1.18284
L28.1363 -16.9068
L25.6611 -18.6263
L39.428 -21.5396
L29.5382 -11.5292
L29.4287 -14.5411
L0.646189 1.18284
L-0.646189 -1.18284" id="C0_22_98ec955292"/>
     <path d="
M-0.646189 -1.18284
L28.1363 -16.9068
L25.6611 -18.6263
L39.428 -21.5396
L29.5382 -11.5292
L29.4287 -14.5411
L0.646189 1.18284
L-0.646189 -1.18284" id="C0_23_98ec955292"/>
     <path d="
M-0.646189 -1.18284
L28.1363 -16.9068
L25.6611 -18.6263
L39.428 -21.5396
L29.5382 -11.5292
L29.4287 -14.5411
L0.646189 1.18284
L-0.646189 -1.18284" id="C0_24_98ec955292"/>
     <path d="
M-0.646189 -1.18284
L28.1363 -16.9068
L25.6611 -18.6263
L39.428 -21.5396
L29.5382 -11.5292
L29.4287 -14.5411
L0.646189 1.18284
L-0.646189 -1.18284" id="C0_25_98ec955292"/>
     <path d="
M-0.646189 -1.18284
L28.1363 -16.9068
L25.6611 -18.6263
L39.428 -21.5396
L29.5382 -11.5292
L29.4287 -14.5411
L0.646189 1.18284
L-0.646189 -1.18284" id="C0_26_98ec955292"/>
     <path d="
M-0.646189 -1.18284
L28.1363 -16.9068
L25.6611 -18.6263
L39.428 -21.5396
L29.5382 -11.5292
L29.4287 -14.5411
L0.646189 1.18284
L-0.646189 -1.18284" id="C0_27_98ec955292"/>
     <path d="
M-0.646189 -1.18284
L28.1363 -16.9068
L25.6611 -18.6263
L39.428 -21.5396
L29.5382 -11.5292
L29.4287 -14.5411
L0.646189 1.18284
L-0.646189 -1.18284" id="C0_28_98ec955292"/>
     <path d="
M-0.646189 -1.18284
L28.1363 -16.9068
L25.6611 -18.6263
L39.428 -21.5396
L29.5382 -11.5292
L29.4287 -14.5411
L0.646189 1.18284
L-0.646189 -1.18284" id="C0_29_98ec955292"/>
     <path d="
M-0.646189 -1.18284
L28.1363 -16.9068
L25.6611 -18.6263
L39.428 -21.5396
L29.5382 -11.5292
L29.4287 -14.5411
L0.646189 1.18284
L-0.646189 -1.18284" id="C0_2a_98ec955292"/>
     <path d="
M-0.646189 -1.18284
L28.1363 -16.9068
L25.6611 -18.6263
L39.428 -21.5396
L29.5382 -11.5292
L29.4287 -14.5411
L0.646189 1.18284
L-0.646189 -1.18284" id="C0_2b_98ec955292"/>
     <path d="
M-0.646189 -1.18284
L28.1363 -16.9068
L25.6611 -18.6263
L39.428 -21.5396
L29.5382 -11.5292
L29.4287 -14.5411
L0.646189 1.18284
L-0.646189 -1.18284" id="C0_2c_98ec955292"/>
     <path d="
M-0.646189 -1.18284
L28.1363 -16.9068
L25.6611 -18.6263
L39.428 -21.5396
L29.5382 -11.5292
L29.4287 -14.5411
L0.646189 1.18284
L-0.646189 -1.18284" id="C0_2d_98ec955292"/>
     <path d="
M-0.646189 -1.18284
L28.1363 -16.9068
L25.6611 -18.6263
L39.428 -21.5396
L29.5382 -11.5292
L29.4287 -14.5411
L0.646189 1.18284
L-0.646189 -1.18284" id="C0_2e_98ec955292"/>
     <path d="
M-0.646189 -1.18284
L28.1363 -16.9068
L25.6611 -18.6263
L39.428 -21.5396
L29.5382 -11.5292
L29.4287 -14.5411
L0.646189 1.18284
L-0.646189 -1.18284" id="C0_2f_98ec955292"/>
     <path d="
M-0.646189 -1.18284
L28.1363 -16.9068
L25.6611 -18.6263
L39.428 -21.5396
L29.5382 -11.5292
L29.4287 -14.5411
L0.646189 1.18284
L-0.646189 -1.18284" id="C0_30_98ec955292"/>
     <path d="
M-0.646189 -1.18284
L28.1363 -16.9068
L25.6611 -18.6263
L39.428 -21.5396
L29.5382 -11.5292
L29.4287 -14.5411
L0.646189 1.18284
L-0.646189 -1.18284" id="C0_31_98ec955292"/>
     <path d="
M-0.646189 -1.18284
L28.1363 -16.9068
L25.6611 -18.6263
L39.428 -21.5396
L29.5382 -11.5292
L29.4287 -14.5411
L0.646189 1.18284
L-0.646189 -1.18284" id="C0_32_98ec955292"/>
     <path d="
M-0.646189 -1.18284
L28.1363 -16.9068
L25.6611 -18.6263
L39.428 -21.5396
L29.5382 -11.5292
L29.4287 -14.5411
L0.646189 1.18284
L-0.646189 -1.18284" id="C0_33_98ec955292"/>
     <path d="
M-0.646189 -1.18284
L28.1363 -16.9068
L25.6611 -18.6263
L39.428 -21.5396
L29.5382 -11.5292
L29.4287 -14.5411
L0.646189 1.18284
L-0.646189 -1.18284" id="C0_34_98ec955292"/>
     <path d="
M-0.646189 -1.18284
L28.1363 -16.9068
L25.6611 -18.6263
L39.428 -21.5396
L29.5382 -11.5292
L29.4287 -14.5411
L0.646189 1.18284
L-0.646189 -1.18284" id="C0_35_98ec955292"/>
     <path d="
M-0.646189 -1.18284
L28.1363 -16.9068
L25.6611 -18.6263
L39.428 -21.5396
L29.5382 -11.5292
L29.4287 -14.5411
L0.646189 1.18284
L-0.646189 -1.18284" id="C0_36_98ec955292"/>
     <path d="
M-0.646189 -1.18284
L28.1363 -16.9068
L25.6611 -18.6263
L39.428 -21.5396
L29.5382 -11.5292
L29.4287 -14.5411
L0.646189 1.18284
L-0.646189 -1.18284" id="C0_37_98ec955292"/>
     <path d="
M-0.646189 -1.18284
L28.1363 -16.9068
L25.6611 -18.6263
L39.428 -21.5396
L29.5382 -11.5292
L29.4287 -14.5411
L0.646189 1.18284
L-0.646189 -1.18284" id="C0_38_98ec955292"/>
     <path d="
M-0.646189 -1.18284
L28.1363 -16.9068
L25.6611 -18.6263
L39.428 -21.5396
L29.5382 -11.5292
L29.4287 -14.5411
L0.646189 1.18284
L-0.646189 -1.18284" id="C0_39_98ec955292"/>
     <path d="
M-0.646189 -1.18284
L28.1363 -16.9068
L25.6611 -18.6263
L39.428 -21.5396
L29.5382 -11.5292
L29.4287 -14.5411
L0.646189 1.18284
L-0.646189 -1.18284" id="C0_3a_98ec955292"/>
     <path d="
M-0.646189 -1.18284
L28.1363 -16.9068
L25.6611 -18.6263
L39.428 -21.5396
L29.5382 -11.5292
L29.4287 -14.5411
L0.646189 1.18284
L-0.646189 -1.18284" id="C0_3b_98ec955292"/>
     <path d="
M-0.646189 -1.18284
L28.1363 -16.9068
L25.6611 -18.6263
L39.428 -21.5396
L29.5382 -11.5292
L29.4287 -14.5411
L0.646189 1.18284
L-0.646189 -1.18284" id="C0_3c_98ec955292"/>
     <path d="
M-0.646189 -1.18284
L28.1363 -16.9068
L25.6611 -18.6263
L39.428 -21.5396
L29.5382 -11.5292
L29.4287 -14.5411
L0.646189 1.18284
L-0.646189 -1.18284" id="C0_3d_98ec955292"/>
     <path d="
M-0.646189 -1.18284
L28.1363 -16.9068
L25.6611 -18.6263
L39.428 -21.5396
L29.5382 -11.5292
L29.4287 -14.5411
L0.646189 1.18284
L-0.646189 -1.18284" id="C0_3e_98ec955292"/>
     <path d="
M-0.646189 -1.18284
L28.1363 -16.9068
L25.6611 -18.6263
L39.428 -21.5396
L29.5382 -11.5292
L29.4287 -14.5411
L0.646189 1.18284
L-0.646189 -1.18284" id="C0_3f_98ec955292"/>
     <path d="
M-0.646189 -1.18284
L28.1363 -16.9068
L25.6611 -18.6263
L39.428 -21.5396
L29.5382 -11.5292
L29.4287 -14.5411
L0.646189 1.18284
L-0.646189 -1.18284" id="C0_40_98ec955292"/>
     <path d="
M-0.646189 -1.18284
L28.1363 -16.9068
L25.6611 -18.6263
L39.428 -21.5396
L29.5382 -11.5292
L29.4287 -14.5411
L0.646189 1.18284
L-0.646189 -1.18284" id="C0_41_98ec955292"/>
     <path d="
M-0.646189 -1.18284
L28.1363 -16.9068
L25.6611 -18.6263
L39.428 -21.5396
L29.5382 -11.5292
L29.4287 -14.5411
L0.646189 1.18284
L-0.646189 -1.18284" id="C0_42_98ec955292"/>
     <path d="
M-0.646189 -1.18284
L28.1363 -16.9068
L25.6611 -18.6263
L39.428 -21.5396
L29.5382 -11.5292
L29.4287 -14.5411
L0.646189 1.18284
L-0.646189 -1.18284" id="C0_43_98ec955292"/>
     <path d="
M-0.646189 -1.18284
L28.1363 -16.9068
L25.6611 -18.6263
L39.428 -21.5396
L29.5382 -11.5292
L29.4287 -14.5411
L0.646189 1.18284
L-0.646189 -1.18284" id="C0_44_98ec955292"/>
     <path d="
M-0.646189 -1.18284
L28.1363 -16.9068
L25.6611 -18.6263
L39.428 -21.5396
L29.5382 -11.5292
L29.4287 -14.5411
L0.646189 1.18284
L-0.646189 -1.18284" id="C0_45_98ec955292"/>
     <path d="
M-0.646189 -1.18284
L28.1363 -16.9068
L25.6611 -18.6263
L39.428 -21.5396
L29.5382 -11.5292
L29.4287 -14.5411
L0.646189 1.18284
L-0.646189 -1.18284" id="C0_46_98ec955292"/>
     <path d="
M-0.646189 -1.18284
L28.1363 -16.9068
L25.6611 -18.6263
L39.428 -21.5396
L29.5382 -11.5292
L29.4287 -14.5411
L0.646189 1.18284
L-0.646189 -1.18284" id="C0_47_98ec955292"/>
     <path d="
M-0.646189 -1.18284
L28.1363 -16.9068
L25.6611 -18.6263
L39.428 -21.5396
L29.5382 -11.5292
L29.4287 -14.5411
L0.646189 1.18284
L-0.646189 -1.18284" id="C0_48_98ec955292"/>
     <path d="
M-0.646189 -1.18284
L28.1363 -16.9068
L25.6611 -18.6263
L39.428 -21.5396
L29.5382 -11.5292
L29.4287 -14.5411
L0.646189 1.18284
L-0.646189 -1.18284" id="C0_49_98ec955292"/>
     <path d="
M-0.646189 -1.18284
L28.1363 -16.9068
L25.6611 -18.6263
L39.428 -21.5396
L29.5382 -11.5292
L29.4287 -14.5411
L0.646189 1.18284
L-0.646189 -1.18284" id="C0_4a_98ec955292"/>
     <path d="
M-0.646189 -1.18284
L28.1363 -16.9068
L25.6611 -18.6263
L39.428 -21.5396
L29.5382 -11.5292
L29.4287 -14.5411
L0.646189 1.18284
L-0.646189 -1.18284" id="C0_4b_98ec955292"/>
     <path d="
M-0.646189 -1.18284
L28.1363 -16.9068
L25.6611 -18.6263
L39.428 -21.5396
L29.5382 -11.5292
L29.4287 -14.5411
L0.646189 1.18284
L-0.646189 -1.18284" id="C0_4c_98ec955292"/>
     <path d="
M-0.646189 -1.18284
L28.1363 -16.9068
L25.6611 -18.6263
L39.428 -21.5396
L29.5382 -11.5292
L29.4287 -14.5411
L0.646189 1.18284
L-0.646189 -1.18284" id="C0_4d_98ec955292"/>
     <path d="
M-0.646189 -1.18284
L28.1363 -16.9068
L25.6611 -18.6263
L39.428 -21.5396
L29.5382 -11.5292
L29.4287 -14.5411
L0.646189 1.18284
L-0.646189 -1.18284" id="C0_4e_98ec955292"/>
     <path d="
M-0.646189 -1.18284
L28.1363 -16.9068
L25.6611 -18.6263
L39.428 -21.5396
L29.5382 -11.5292
L29.4287 -14.5411
L0.646189 1.18284
L-0.646189 -1.18284" id="C0_4f_98ec955292"/>
     <path d="
M-0.646189 -1.18284
L28.1363 -16.9068
L25.6611 -18.6263
L39.428 -21.5396
L29.5382 -11.5292
L29.4287 -14.5411
L0.646189 1.18284
L-0.646189 -1.18284" id="C0_50_98ec955292"/>
     <path d="
M-0.646189 -1.18284
L28.1363 -16.9068
L25.6611 -18.6263
L39.428 -21.5396
L29.5382 -11.5292
L29.4287 -14.5411
L0.646189 1.18284
L-0.646189 -1.18284" id="C0_51_98ec955292"/>
     <path d="
M-0.646189 -1.18284
L28.1363 -16.9068
L25.6611 -18.6263
L39.428 -21.5396
L29.5382 -11.5292
L29.4287 -14.5411
L0.646189 1.18284
L-0.646189 -1.18284" id="C0_52_98ec955292"/>
     <path d="
M-0.646189 -1.18284
L28.1363 -16.9068
L25.6611 -18.6263
L39.428 -21.5396
L29.5382 -11.5292
L29.4287 -14.5411
L0.646189 1.18284
L-0.646189 -1.18284" id="C0_53_98ec955292"/>
     <path d="
M-0.646189 -1.18284
L28.1363 -16.9068
L25.6611 -18.6263
L39.428 -21.5396
L29.5382 -11.5292
L29.4287 -14.5411
L0.646189 1.18284
L-0.646189 -1.18284" id="C0_54_98ec955292"/>
     <path d="
M-0.646189 -1.18284
L28.1363 -16.9068
L25.6611 -18.6263
L39.428 -21.5396
L29.5382 -11.5292
L29.4287 -14.5411
L0.646189 1.18284
L-0.646189 -1.18284" id="C0_55_98ec955292"/>
     <path d="
M-0.646189 -1.18284
L28.1363 -16.9068
L25.6611 -18.6263
L39.428 -21.5396
L29.5382 -11.5292
L29.4287 -14.5411
L0.646189 1.18284
L-0.646189 -1.18284" id="C0_56_98ec955292"/>
     <path d="
M-0.646189 -1.18284
L28.1363 -16.9068
L25.6611 -18.6263
L39.428 -21.5396
L29.5382 -11.5292
L29.4287 -14.5411
L0.646189 1.18284
L-0.646189 -1.18284" id="C0_57_98ec955292"/>
     <path d="
M-0.646189 -1.18284
L28.1363 -16.9068
L25.6611 -18.6263
L39.428 -21.5396
L29.5382 -11.5292
L29.4287 -14.5411
L0.646189 1.18284
L-0.646189 -1.18284" id="C0_58_98ec955292"/>
     <path d="
M-0.646189 -1.18284
L28.1363 -16.9068
L25.6611 -18.6263
L39.428 -21.5396
L29.5382 -11.5292
L29.4287 -14.5411
L0.646189 1.18284
L-0.646189 -1.18284" id="C0_59_98ec955292"/>
     <path d="
M-0.646189 -1.18284
L28.1363 -16.9068
L25.6611 -18.6263
L39.428 -21.5396
L29.5382 -11.5292
L29.4287 -14.5411
L0.646189 1.18284
L-0.646189 -1.18284" id="C0_5a_98ec955292"/>
     <path d="
M-0.646189 -1.18284
L28.1363 -16.9068
L25.6611 -18.6263
L39.428 -21.5396
L29.5382 -11.5292
L29.4287 -14.5411
L0.646189 1.18284
L-0.646189 -1.18284" id="C0_5b_98ec955292"/>
     <path d="
M-0.646189 -1.18284
L28.1363 -16.9068
L25.6611 -18.6263
L39.428 -21.5396
L29.5382 -11.5292
L29.4287 -14.5411
L0.646189 1.18284
L-0.646189 -1.18284" id="C0_5c_98ec955292"/>
     <path d="
M-0.646189 -1.18284
L28.1363 -16.9068
L25.6611 -18.6263
L39.428 -21.5396
L29.5382 -11.5292
L29.4287 -14.5411
L0.646189 1.18284
L-0.646189 -1.18284" id="C0_5d_98ec955292"/>
     <path d="
M-0.646189 -1.18284
L28.1363 -16.9068
L25.6611 -18.6263
L39.428 -21.5396
L29.5382 -11.5292
L29.4287 -14.5411
L0.646189 1.18284
L-0.646189 -1.18284" id="C0_5e_98ec955292"/>
     <path d="
M-0.646189 -1.18284
L28.1363 -16.9068
L25.6611 -18.6263
L39.428 -21.5396
L29.5382 -11.5292
L29.4287 -14.5411
L0.646189 1.18284
L-0.646189 -1.18284" id="C0_5f_98ec955292"/>
     <path d="
M-0.646189 -1.18284
L28.1363 -16.9068
L25.6611 -18.6263
L39.428 -21.5396
L29.5382 -11.5292
L29.4287 -14.5411
L0.646189 1.18284
L-0.646189 -1.18284" id="C0_60_98ec955292"/>
     <path d="
M-0.646189 -1.18284
L28.1363 -16.9068
L25.6611 -18.6263
L39.428 -21.5396
L29.5382 -11.5292
L29.4287 -14.5411
L0.646189 1.18284
L-0.646189 -1.18284" id="C0_61_98ec955292"/>
     <path d="
M-0.646189 -1.18284
L28.1363 -16.9068
L25.6611 -18.6263
L39.428 -21.5396
L29.5382 -11.5292
L29.4287 -14.5411
L0.646189 1.18284
L-0.646189 -1.18284" id="C0_62_98ec955292"/>
     <path d="
M-0.646189 -1.18284
L28.1363 -16.9068
L25.6611 -18.6263
L39.428 -21.5396
L29.5382 -11.5292
L29.4287 -14.5411
L0.646189 1.18284
L-0.646189 -1.18284" id="C0_63_98ec955292"/>
    </defs>
    <g clip-path="url(#pe983b0043e)">
     <use x="-21.6" xlink:href="#C0_0_98ec955292" y="317.196"/>
    </g>
    <g clip-path="url(#pe983b0043e)">
     <use x="23.7818181818" xlink:href="#C0_1_98ec955292" y="317.196"/>
    </g>
    <g clip-path="url(#pe983b0043e)">
     <use x="69.1636363636" xlink:href="#C0_2_98ec955292" y="317.196"/>
    </g>
    <g clip-path="url(#pe983b0043e)">
     <use x="114.545454545" xlink:href="#C0_3_98ec955292" y="317.196"/>
    </g>
    <g clip-path="url(#pe983b0043e)">
     <use x="159.927272727" xlink:href="#C0_4_98ec955292" y="317.196"/>
    </g>
    <g clip-path="url(#pe983b0043e)">
     <use x="205.309090909" xlink:href="#C0_5_98ec955292" y="317.196"/>
    </g>
    <g clip-path="url(#pe983b0043e)">
     <use x="250.690909091" xlink:href="#C0_6_98ec955292" y="317.196"/>
    </g>
    <g clip-path="url(#pe983b0043e)">
     <use x="296.072727273" xlink:href="#C0_7_98ec955292" y="317.196"/>
    </g>
    <g clip-path="url(#pe983b0043e)">
     <use x="341.454545455" xlink:href="#C0_8_98ec955292" y="317.196"/>
    </g>
    <g clip-path="url(#pe983b0043e)">
     <use x="386.836363636" xlink:href="#C0_9_98ec955292" y="317.196"/>
    </g>
    <g clip-path="url(#pe983b0043e)">
     <use x="-21.6" xlink:href="#C0_a_98ec955292" y="285.479636364"/>
    </g>
    <g clip-path="url(#pe983b0043e)">
     <use x="23.7818181818" xlink:href="#C0_b_98ec955292" y="285.479636364"/>
    </g>
    <g clip-path="url(#pe983b0043e)">
     <use x="69.1636363636" xlink:href="#C0_c_98ec955292" y="285.479636364"/>
    </g>
    <g clip-path="url(#pe983b0043e)">
     <use x="114.545454545" xlink:href="#C0_d_98ec955292" y="285.479636364"/>
    </g>
    <g clip-path="url(#pe983b0043e)">
     <use x="159.927272727" xlink:href="#C0_e_98ec955292" y="285.479636364"/>
    </g>
    <g clip-path="url(#pe983b0043e)">
     <use x="205.309090909" xlink:href="#C0_f_98ec955292" y="285.479636364"/>
    </g>
    <g clip-path="url(#pe983b0043e)">
     <use x="250.690909091" xlink:href="#C0_10_98ec955292" y="285.479636364"/>
    </g>
    <g clip-path="url(#pe983b0043e)">
     <use x="296.072727273" xlink:href="#C0_11_98ec955292" y="285.479636364"/>
    </g>
    <g clip-path="url(#pe983b0043e)">
     <use x="341.454545455" xlink:href="#C0_12_98ec955292" y="285.479636364"/>
    </g>
    <g clip-path="url(#pe983b0043e)">
     <use x="386.836363636" xlink:href="#C0_13_98ec955292" y="285.479636364"/>
    </g>
    <g clip-path="url(#pe983b0043e)">
     <use x="-21.6" xlink:href="#C0_14_98ec955292" y="253.763272727"/>
    </g>
    <g clip-path="url(#pe983b0043e)">
     <use x="23.7818181818" xlink:href="#C0_15_98ec955292" y="253.763272727"/>
    </g>
    <g clip-path="url(#pe983b0043e)">
     <use x="69.1636363636" xlink:href="#C0_16_98ec955292" y="253.763272727"/>
    </g>
    <g clip-path="url(#pe983b0043e)">
     <use x="114.545454545" xlink:href="#C0_17_98ec955292" y="253.763272727"/>
    </g>
    <g clip-path="url(#pe983b0043e)">
     <use x="159.927272727" xlink:href="#C0_18_98ec955292" y="253.763272727"/>
    </g>
    <g clip-path="url(#pe983b0043e)">
     <use x="205.309090909" xlink:href="#C0_19_98ec955292" y="253.763272727"/>
    </g>
    <g clip-path="url(#pe983b0043e)">
     <use x="250.690909091" xlink:href="#C0_1a_98ec955292" y="253.763272727"/>
    </g>
    <g clip-path="url(#pe983b0043e)">
     <use x="296.072727273" xlink:href="#C0_1b_98ec955292" y="253.763272727"/>
    </g>
    <g clip-path="url(#pe983b0043e)">
     <use x="341.454545455" xlink:href="#C0_1c_98ec955292" y="253.763272727"/>
    </g>
    <g clip-path="url(#pe983b0043e)">
     <use x="386.836363636" xlink:href="#C0_1d_98ec955292" y="253.763272727"/>
    </g>
    <g clip-path="url(#pe983b0043e)">
     <use x="-21.6" xlink:href="#C0_1e_98ec955292" y="222.046909091"/>
    </g>
    <g clip-path="url(#pe983b0043e)">
     <use x="23.7818181818" xlink:href="#C0_1f_98ec955292" y="222.046909091"/>
    </g>
    <g clip-path="url(#pe983b0043e)">
     <use x="69.1636363636" xlink:href="#C0_20_98ec955292" y="222.046909091"/>
    </g>
    <g clip-path="url(#pe983b0043e)">
     <use x="114.545454545" xlink:href="#C0_21_98ec955292" y="222.046909091"/>
    </g>
    <g clip-path="url(#pe983b0043e)">
     <use x="159.927272727" xlink:href="#C0_22_98ec955292" y="222.046909091"/>
    </g>
    <g clip-path="url(#pe983b0043e)">
     <use x="205.309090909" xlink:href="#C0_23_98ec955292" y="222.046909091"/>
    </g>
    <g clip-path="url(#pe983b0043e)">
     <use x="250.690909091" xlink:href="#C0_24_98ec955292" y="222.046909091"/>
    </g>
    <g clip-path="url(#pe983b0043e)">
     <use x="296.072727273" xlink:href="#C0_25_98ec955292" y="222.046909091"/>
    </g>
    <g clip-path="url(#pe983b0043e)">
     <use x="341.454545455" xlink:href="#C0_26_98ec955292" y="222.046909091"/>
    </g>
    <g clip-path="url(#pe983b0043e)">
     <use x="386.836363636" xlink:href="#C0_27_98ec955292" y="222.046909091"/>
    </g>
    <g clip-path="url(#pe983b0043e)">
     <use x="-21.6" xlink:href="#C0_28_98ec955292" y="190.330545455"/>
    </g>
    <g clip-path="url(#pe983b0043e)">
     <use x="23.7818181818" xlink:href="#C0_29_98ec955292" y="190.330545455"/>
    </g>
    <g clip-path="url(#pe983b0043e)">
     <use x="69.1636363636" xlink:href="#C0_2a_98ec955292" y="190.330545455"/>
    </g>
    <g clip-path="url(#pe983b0043e)">
     <use x="114.545454545" xlink:href="#C0_2b_98ec955292" y="190.330545455"/>
    </g>
    <g clip-path="url(#pe983b0043e)">
     <use x="159.927272727" xlink:href="#C0_2c_98ec955292" y="190.330545455"/>
    </g>
    <g clip-path="url(#pe983b0043e)">
     <use x="205.309090909" xlink:href="#C0_2d_98ec955292" y="190.330545455"/>
    </g>
    <g clip-path="url(#pe983b0043e)">
     <use x="250.690909091" xlink:href="#C0_2e_98ec955292" y="190.330545455"/>
    </g>
    <g clip-path="url(#pe983b0043e)">
     <use x="296.072727273" xlink:href="#C0_2f_98ec955292" y="190.330545455"/>
    </g>
    <g clip-path="url(#pe983b0043e)">
     <use x="341.454545455" xlink:href="#C0_30_98ec955292" y="190.330545455"/>
    </g>
    <g clip-path="url(#pe983b0043e)">
     <use x="386.836363636" xlink:href="#C0_31_98ec955292" y="190.330545455"/>
    </g>
    <g clip-path="url(#pe983b0043e)">
     <use x="-21.6" xlink:href="#C0_32_98ec955292" y="158.614181818"/>
    </g>
    <g clip-path="url(#pe983b0043e)">
     <use x="23.7818181818" xlink:href="#C0_33_98ec955292" y="158.614181818"/>
    </g>
    <g clip-path="url(#pe983b0043e)">
     <use x="69.1636363636" xlink:href="#C0_34_98ec955292" y="158.614181818"/>
    </g>
    <g clip-path="url(#pe983b0043e)">
     <use x="114.545454545" xlink:href="#C0_35_98ec955292" y="158.614181818"/>
    </g>
    <g clip-path="url(#pe983b0043e)">
     <use x="159.927272727" xlink:href="#C0_36_98ec955292" y="158.614181818"/>
    </g>
    <g clip-path="url(#pe983b0043e)">
     <use x="205.309090909" xlink:href="#C0_37_98ec955292" y="158.614181818"/>
    </g>
    <g clip-path="url(#pe983b0043e)">
     <use x="250.690909091" xlink:href="#C0_38_98ec955292" y="158.614181818"/>
    </g>
    <g clip-path="url(#pe983b0043e)">
     <use x="296.072727273" xlink:href="#C0_39_98ec955292" y="158.614181818"/>
    </g>
    <g clip-path="url(#pe983b0043e)">
     <use x="341.454545455" xlink:href="#C0_3a_98ec955292" y="158.614181818"/>
    </g>
    <g clip-path="url(#pe983b0043e)">
     <use x="386.836363636" xlink:href="#C0_3b_98ec955292" y="158.614181818"/>
    </g>
    <g clip-path="url(#pe983b0043e)">
     <use x="-21.6" xlink:href="#C0_3c_98ec955292" y="126.897818182"/>
    </g>
    <g clip-path="url(#pe983b0043e)">
     <use x="23.7818181818" xlink:href="#C0_3d_98ec955292" y="126.897818182"/>
    </g>
    <g clip-path="url(#pe983b0043e)">
     <use x="69.1636363636" xlink:href="#C0_3e_98ec955292" y="126.897818182"/>
    </g>
    <g clip-path="url(#pe983b0043e)">
     <use x="114.545454545" xlink:href="#C0_3f_98ec955292" y="126.897818182"/>
    </g>
    <g clip-path="url(#pe983b0043e)">
     <use x="159.927272727" xlink:href="#C0_40_98ec955292" y="126.897818182"/>
    </g>
    <g clip-path="url(#pe983b0043e)">
     <use x="205.309090909" xlink:href="#C0_41_98ec955292" y="126.897818182"/>
    </g>
    <g clip-path="url(#pe983b0043e)">
     <use x="250.690909091" xlink:href="#C0_42_98ec955292" y="126.897818182"/>
    </g>
    <g clip-path="url(#pe983b0043e)">
     <use x="296.072727273" xlink:href="#C0_43_98ec955292" y="126.897818182"/>
    </g>
    <g clip-path="url(#pe983b0043e)">
     <use x="341.454545455" xlink:href="#C0_44_98ec955292" y="126.897818182"/>
    </g>
    <g clip-path="url(#pe983b0043e)">
     <use x="386.836363636" xlink:href="#C0_45_98ec955292" y="126.897818182"/>
    </g>
    <g clip-path="url(#pe983b0043e)">
     <use x="-21.6" xlink:href="#C0_46_98ec955292" y="95.1814545455"/>
    </g>
    <g clip-path="url(#pe983b0043e)">
     <use x="23.7818181818" xlink:href="#C0_47_98ec955292" y="95.1814545455"/>
    </g>
    <g clip-path="url(#pe983b0043e)">
     <use x="69.1636363636" xlink:href="#C0_48_98ec955292" y="95.1814545455"/>
    </g>
    <g clip-path="url(#pe983b0043e)">
     <use x="114.545454545" xlink:href="#C0_49_98ec955292" y="95.1814545455"/>
    </g>
    <g clip-path="url(#pe983b0043e)">
     <use x="159.927272727" xlink:href="#C0_4a_98ec955292" y="95.1814545455"/>
    </g>
    <g clip-path="url(#pe983b0043e)">
     <use x="205.309090909" xlink:href="#C0_4b_98ec955292" y="95.1814545455"/>
    </g>
    <g clip-path="url(#pe983b0043e)">
     <use x="250.690909091" xlink:href="#C0_4c_98ec955292" y="95.1814545455"/>
    </g>
    <g clip-path="url(#pe983b0043e)">
     <use x="296.072727273" xlink:href="#C0_4d_98ec955292" y="95.1814545455"/>
    </g>
    <g clip-path="url(#pe983b0043e)">
     <use x="341.454545455" xlink:href="#C0_4e_98ec955292" y="95.1814545455"/>
    </g>
    <g clip-path="url(#pe983b0043e)">
     <use x="386.836363636" xlink:href="#C0_4f_98ec955292" y="95.1814545455"/>
    </g>
    <g clip-path="url(#pe983b0043e)">
     <use x="-21.6" xlink:href="#C0_50_98ec955292" y="63.4650909091"/>
    </g>
    <g clip-path="url(#pe983b0043e)">
     <use x="23.7818181818" xlink:href="#C0_51_98ec955292" y="63.4650909091"/>
    </g>
    <g clip-path="url(#pe983b0043e)">
     <use x="69.1636363636" xlink:href="#C0_52_98ec955292" y="63.4650909091"/>
    </g>
    <g clip-path="url(#pe983b0043e)">
     <use x="114.545454545" xlink:href="#C0_53_98ec955292" y="63.4650909091"/>
    </g>
    <g clip-path="url(#pe983b0043e)">
     <use x="159.927272727" xlink:href="#C0_54_98ec955292" y="63.4650909091"/>
    </g>
    <g clip-path="url(#pe983b0043e)">
     <use x="205.309090909" xlink:href="#C0_55_98ec955292" y="63.4650909091"/>
    </g>
    <g clip-path="url(#pe983b0043e)">
     <use x="250.690909091" xlink:href="#C0_56_98ec955292" y="63.4650909091"/>
    </g>
    <g clip-path="url(#pe983b0043e)">
     <use x="296.072727273" xlink:href="#C0_57_98ec955292" y="63.4650909091"/>
    </g>
    <g clip-path="url(#pe983b0043e)">
     <use x="341.454545455" xlink:href="#C0_58_98ec955292" y="63.4650909091"/>
    </g>
    <g clip-path="url(#pe983b0043e)">
     <use x="386.836363636" xlink:href="#C0_59_98ec955292" y="63.4650909091"/>
    </g>
    <g clip-path="url(#pe983b0043e)">
     <use x="-21.6" xlink:href="#C0_5a_98ec955292" y="31.7487272727"/>
    </g>
    <g clip-path="url(#pe983b0043e)">
     <use x="23.7818181818" xlink:href="#C0_5b_98ec955292" y="31.7487272727"/>
    </g>
    <g clip-path="url(#pe983b0043e)">
     <use x="69.1636363636" xlink:href="#C0_5c_98ec955292" y="31.7487272727"/>
    </g>
    <g clip-path="url(#pe983b0043e)">
     <use x="114.545454545" xlink:href="#C0_5d_98ec955292" y="31.7487272727"/>
    </g>
    <g clip-path="url(#pe983b0043e)">
     <use x="159.927272727" xlink:href="#C0_5e_98ec955292" y="31.7487272727"/>
    </g>
    <g clip-path="url(#pe983b0043e)">
     <use x="205.309090909" xlink:href="#C0_5f_98ec955292" y="31.7487272727"/>
    </g>
    <g clip-path="url(#pe983b0043e)">
     <use x="250.690909091" xlink:href="#C0_60_98ec955292" y="31.7487272727"/>
    </g>
    <g clip-path="url(#pe983b0043e)">
     <use x="296.072727273" xlink:href="#C0_61_98ec955292" y="31.7487272727"/>
    </g>
    <g clip-path="url(#pe983b0043e)">
     <use x="341.454545455" xlink:href="#C0_62_98ec955292" y="31.7487272727"/>
    </g>
    <g clip-path="url(#pe983b0043e)">
     <use x="386.836363636" xlink:href="#C0_63_98ec955292" y="31.7487272727"/>
    </g>
   </g>
  </g>
 </g>
 <defs>
  <clipPath id="pe983b0043e">
   <rect height="313.992" width="449.28" x="-21.6" y="3.204"/>
  </clipPath>
 </defs>
</svg>
