<?xml version="1.0" encoding="utf-8" standalone="no"?>
<!DOCTYPE svg PUBLIC "-//W3C//DTD SVG 1.1//EN"
  "http://www.w3.org/Graphics/SVG/1.1/DTD/svg11.dtd">
<!-- Created with matplotlib (http://matplotlib.org/) -->
<svg height="320pt" version="1.1" viewBox="0 0 432 320" width="432pt" xmlns="http://www.w3.org/2000/svg" xmlns:xlink="http://www.w3.org/1999/xlink">
 <defs>
  <style type="text/css">
*{stroke-linecap:butt;stroke-linejoin:round;}
  </style>
 </defs>
 <g id="figure_1">
  <g id="patch_1">
   <path d="
M0 320.4
L432 320.4
L432 0
L0 0
z
" style="fill:none;"/>
  </g>
  <g id="axes_1">
   <g id="Quiver_1">
    <defs>
     <path d="
M0.297938 -0.297938
L0.595876 -7.48202e-17
L0.893814 -0.893814
L2.97938 2.97938
L-0.893814 0.893814
L7.48202e-17 0.595876
L-0.297938 0.297938
L0.297938 -0.297938" id="C0_0_3b2ffa97a3"/>
     <path d="
M0.290509 -0.364056
L0.654565 -0.0735466
L0.871527 -1.09217
L3.64056 2.90509
L-0.871527 1.09217
L0.0735466 0.654565
L-0.290509 0.364056
L0.290509 -0.364056" id="C0_1_c995c55578"/>
     <path d="
M0.262047 -0.439706
L0.701754 -0.177659
L0.786142 -1.31912
L4.39706 2.62047
L-0.786142 1.31912
L0.177659 0.701754
L-0.262047 0.439706
L0.262047 -0.439706" id="C0_2_8a17ea75ad"/>
     <path d="
M0.203204 -0.515826
L0.71903 -0.312622
L0.609613 -1.54748
L5.15826 2.03204
L-0.609613 1.54748
L0.312622 0.71903
L-0.203204 0.515826
L0.203204 -0.515826" id="C0_3_06fdcd2a80"/>
     <path d="
M0.110297 -0.574708
L0.685005 -0.46441
L0.330892 -1.72412
L5.74708 1.10297
L-0.330892 1.72412
L0.46441 0.685005
L-0.110297 0.574708
L0.110297 -0.574708" id="C0_4_e232633610"/>
     <path d="
M-0.00601834 -0.595815
L0.589797 -0.601834
L-0.018055 -1.78745
L5.95815 -0.0601834
L0.018055 1.78745
L0.601834 0.589797
L0.00601834 0.595815
L-0.00601834 -0.595815" id="C0_5_300f5cd7e8"/>
     <path d="
M-0.120956 -0.570219
L0.449263 -0.691174
L-0.362867 -1.71066
L5.70219 -1.20956
L0.362867 1.71066
L0.691174 0.449263
L0.120956 0.570219
L-0.120956 -0.570219" id="C0_6_00f1d40c76"/>
     <path d="
M-0.210648 -0.508638
L0.29799 -0.719286
L-0.631944 -1.52591
L5.08638 -2.10648
L0.631944 1.52591
L0.719286 0.29799
L0.210648 0.508638
L-0.210648 -0.508638" id="C0_7_ff11e511db"/>
     <path d="
M-0.266122 -0.431902
L0.165781 -0.698024
L-0.798365 -1.29571
L4.31902 -2.66122
L0.798365 1.29571
L0.698024 0.165781
L0.266122 0.431902
L-0.266122 -0.431902" id="C0_8_3997e92ef1"/>
     <path d="
M-0.292038 -0.356936
L0.0648974 -0.648974
L-0.876115 -1.07081
L3.56936 -2.92038
L0.876115 1.07081
L0.648974 0.0648974
L0.292038 0.356936
L-0.292038 -0.356936" id="C0_9_dc337a3cbf"/>
     <path d="
M0.364056 -0.290509
L0.654565 0.0735466
L1.09217 -0.871527
L2.90509 3.64056
L-1.09217 0.871527
L-0.0735466 0.654565
L-0.364056 0.290509
L0.364056 -0.290509" id="C0_a_88cc3977c8"/>
     <path d="
M0.373365 -0.373365
L0.746731 -7.48202e-17
L1.1201 -1.1201
L3.73365 3.73365
L-1.1201 1.1201
L7.48202e-17 0.746731
L-0.373365 0.373365
L0.373365 -0.373365" id="C0_b_efb3a0655d"/>
     <path d="
M0.358004 -0.479361
L0.837365 -0.121357
L1.07401 -1.43808
L4.79361 3.58004
L-1.07401 1.43808
L0.121357 0.837365
L-0.358004 0.479361
L0.358004 -0.479361" id="C0_c_3eb5ee6fa8"/>
     <path d="
M0.296403 -0.600405
L0.896808 -0.304003
L0.889208 -1.80122
L6.00405 2.96403
L-0.889208 1.80122
L0.304003 0.896808
L-0.296403 0.600405
L0.296403 -0.600405" id="C0_d_27c9cbba97"/>
     <path d="
M0.169773 -0.705899
L0.875673 -0.536126
L0.50932 -2.1177
L7.05899 1.69773
L-0.50932 2.1177
L0.536126 0.875673
L-0.169773 0.705899
L0.169773 -0.705899" id="C0_e_2c93751047"/>
     <path d="
M-0.00945077 -0.746611
L0.73716 -0.756062
L-0.0283523 -2.23983
L7.46611 -0.0945077
L0.0283523 2.23983
L0.756062 0.73716
L0.00945077 0.746611
L-0.00945077 -0.746611" id="C0_f_0f351b9392"/>
     <path d="
M-0.185398 -0.697448
L0.51205 -0.882845
L-0.556193 -2.09234
L6.97448 -1.85398
L0.556193 2.09234
L0.882845 0.51205
L0.185398 0.697448
L-0.185398 -0.697448" id="C0_10_25435ea05b"/>
     <path d="
M-0.305309 -0.588279
L0.28297 -0.893589
L-0.915928 -1.76484
L5.88279 -3.05309
L0.915928 1.76484
L0.893589 0.28297
L0.305309 0.588279
L-0.305309 -0.588279" id="C0_11_83b6efddca"/>
     <path d="
M-0.361222 -0.467812
L0.10659 -0.829035
L-1.08367 -1.40344
L4.67812 -3.61222
L1.08367 1.40344
L0.829035 0.10659
L0.361222 0.467812
L-0.361222 -0.467812" id="C0_12_dbe04154a6"/>
     <path d="
M-0.373249 -0.364033
L-0.00921602 -0.737281
L-1.11975 -1.0921
L3.64033 -3.73249
L1.11975 1.0921
L0.737281 -0.00921602
L0.373249 0.364033
L-0.373249 -0.364033" id="C0_13_237799e324"/>
     <path d="
M0.439706 -0.262047
L0.701754 0.177659
L1.31912 -0.786142
L2.62047 4.39706
L-1.31912 0.786142
L-0.177659 0.701754
L-0.439706 0.262047
L0.439706 -0.262047" id="C0_14_1643e709d0"/>
     <path d="
M0.479361 -0.358004
L0.837365 0.121357
L1.43808 -1.07401
L3.58004 4.79361
L-1.43808 1.07401
L-0.121357 0.837365
L-0.479361 0.358004
L0.479361 -0.358004" id="C0_15_d719416334"/>
     <path d="
M0.49993 -0.49993
L0.99986 -2.2446e-16
L1.49979 -1.49979
L4.9993 4.9993
L-1.49979 1.49979
L2.2446e-16 0.99986
L-0.49993 0.49993
L0.49993 -0.49993" id="C0_16_f838de18f4"/>
     <path d="
M0.459952 -0.695824
L1.15578 -0.235873
L1.37985 -2.08747
L6.95824 4.59952
L-1.37985 2.08747
L0.235873 1.15578
L-0.459952 0.695824
L0.459952 -0.695824" id="C0_17_9eeb8f6d8d"/>
     <path d="
M0.291734 -0.905912
L1.19765 -0.614177
L0.875203 -2.71773
L9.05912 2.91734
L-0.875203 2.71773
L0.614177 1.19765
L-0.291734 0.905912
L0.291734 -0.905912" id="C0_18_d9d9d29de3"/>
     <path d="
M-0.0169419 -0.999573
L0.982631 -1.01651
L-0.0508257 -2.99872
L9.99573 -0.169419
L0.0508257 2.99872
L1.01651 0.982631
L0.0169419 0.999573
L-0.0169419 -0.999573" id="C0_19_fd30e9bcdd"/>
     <path d="
M-0.315866 -0.887433
L0.571567 -1.2033
L-0.947598 -2.6623
L8.87433 -3.15866
L0.947598 2.6623
L1.2033 0.571567
L0.315866 0.887433
L-0.315866 -0.887433" id="C0_1a_edf6d8de01"/>
     <path d="
M-0.468551 -0.674257
L0.205705 -1.14281
L-1.40565 -2.02277
L6.74257 -4.68551
L1.40565 2.02277
L1.14281 0.205705
L0.468551 0.674257
L-0.468551 -0.674257" id="C0_1b_75fb5984d7"/>
     <path d="
M-0.499652 -0.48327
L-0.016382 -0.982923
L-1.49896 -1.44981
L4.8327 -4.99652
L1.49896 1.44981
L0.982923 -0.016382
L0.499652 0.48327
L-0.499652 -0.48327" id="C0_1c_2edfad7678"/>
     <path d="
M-0.475835 -0.346596
L-0.129239 -0.82243
L-1.4275 -1.03979
L3.46596 -4.75835
L1.4275 1.03979
L0.82243 -0.129239
L0.475835 0.346596
L-0.475835 -0.346596" id="C0_1d_8b723e61df"/>
     <path d="
M0.515826 -0.203204
L0.71903 0.312622
L1.54748 -0.609613
L2.03204 5.15826
L-1.54748 0.609613
L-0.312622 0.71903
L-0.515826 0.203204
L0.515826 -0.203204" id="C0_1e_c894c4d366"/>
     <path d="
M0.600405 -0.296403
L0.896808 0.304003
L1.80122 -0.889208
L2.96403 6.00405
L-1.80122 0.889208
L-0.304003 0.896808
L-0.600405 0.296403
L0.600405 -0.296403" id="C0_1f_e3d9bbd9a5"/>
     <path d="
M0.695824 -0.459952
L1.15578 0.235873
L2.08747 -1.37985
L4.59952 6.95824
L-2.08747 1.37985
L-0.235873 1.15578
L-0.695824 0.459952
L0.695824 -0.459952" id="C0_20_43e897737f"/>
     <path d="
M0.756304 -0.756304
L1.51261 -1.4964e-16
L2.26891 -2.26891
L7.56304 7.56304
L-2.26891 2.26891
L1.4964e-16 1.51261
L-0.756304 0.756304
L0.756304 -0.756304" id="C0_21_8afdf57196"/>
     <path d="
M0.590313 -1.21169
L1.9097 -0.568914
L1.87864 -3.58262
L12.2246 5.95559
L-1.66324 3.68755
L0.729079 1.85448
L-0.590313 1.21169
L0.590313 -1.21169" id="C0_22_1828b64d0d"/>
     <path d="
M-0.0345486 -1.3474
L2.95502 -1.42405
L1.53853 -4.0843
L15.1161 -0.387594
L1.74582 4.00008
L3.02412 1.27074
L0.0345486 1.3474
L-0.0345486 -1.3474" id="C0_23_54cc03f85a"/>
     <path d="
M-0.63141 -1.17262
L0.541209 -1.80403
L-1.89423 -3.51786
L11.7262 -6.3141
L1.89423 3.51786
L1.80403 0.541209
L0.63141 1.17262
L-0.63141 -1.17262" id="C0_24_7f7450ec14"/>
     <path d="
M-0.755359 -0.718513
L-0.0368468 -1.47387
L-2.26608 -2.15554
L7.18513 -7.55359
L2.26608 2.15554
L1.47387 -0.0368468
L0.755359 0.718513
L-0.755359 -0.718513" id="C0_25_77f686d849"/>
     <path d="
M-0.686474 -0.438893
L-0.247581 -1.12537
L-2.05942 -1.31668
L4.38893 -6.86474
L2.05942 1.31668
L1.12537 -0.247581
L0.686474 0.438893
L-0.686474 -0.438893" id="C0_26_44c3908447"/>
     <path d="
M-0.591231 -0.284667
L-0.306564 -0.875898
L-1.77369 -0.854001
L2.84667 -5.91231
L1.77369 0.854001
L0.875898 -0.306564
L0.591231 0.284667
L-0.591231 -0.284667" id="C0_27_746b1ded7b"/>
     <path d="
M0.574708 -0.110297
L0.685005 0.46441
L1.72412 -0.330892
L1.10297 5.74708
L-1.72412 0.330892
L-0.46441 0.685005
L-0.574708 0.110297
L0.574708 -0.110297" id="C0_28_6b94a5fa81"/>
     <path d="
M0.705899 -0.169773
L0.875673 0.536126
L2.1177 -0.50932
L1.69773 7.05899
L-2.1177 0.50932
L-0.536126 0.875673
L-0.705899 0.169773
L0.705899 -0.169773" id="C0_29_fa9c6bd169"/>
     <path d="
M0.905912 -0.291734
L1.19765 0.614177
L2.71773 -0.875203
L2.91734 9.05912
L-2.71773 0.875203
L-0.614177 1.19765
L-0.905912 0.291734
L0.905912 -0.291734" id="C0_2a_c939db0efb"/>
     <path d="
M1.21169 -0.590313
L1.85448 0.729079
L3.68755 -1.66324
L5.95559 12.2246
L-3.58262 1.87864
L-0.568914 1.9097
L-1.21169 0.590313
L1.21169 -0.590313" id="C0_2b_f0aab9c5cd"/>
     <path d="
M0.953067 -0.953067
L7.89961 5.99347
L8.85267 3.13427
L15.5241 15.5241
L3.13427 8.85267
L5.99347 7.89961
L-0.953067 0.953067
L0.953067 -0.953067" id="C0_2c_1d1ce8fc8e"/>
     <path d="
M-0.0708409 -1.34598
L18.7779 -2.33801
L17.2902 -4.95913
L30.9625 -1.62961
L17.7153 3.11673
L18.9196 0.353939
L0.0708409 1.34598
L-0.0708409 -1.34598" id="C0_2d_aa2e53bb04"/>
     <path d="
M-0.999472 -0.904284
L4.83757 -7.35575
L1.93435 -8.16485
L13.9756 -15.4467
L7.93117 -2.73915
L6.83652 -5.54719
L0.999472 0.904284
L-0.999472 -0.904284" id="C0_2e_cd83c8169f"/>
     <path d="
M-1.18446 -0.548895
L-0.635562 -1.73335
L-3.55337 -1.64668
L5.48895 -11.8446
L3.55337 1.64668
L1.73335 -0.635562
L1.18446 0.548895
L-1.18446 -0.548895" id="C0_2f_242d44cceb"/>
     <path d="
M-0.881552 -0.274582
L-0.60697 -1.15613
L-2.64466 -0.823745
L2.74582 -8.81552
L2.64466 0.823745
L1.15613 -0.60697
L0.881552 0.274582
L-0.881552 -0.274582" id="C0_30_ec6fbfe2fd"/>
     <path d="
M-0.690311 -0.161925
L-0.528386 -0.852235
L-2.07093 -0.485774
L1.61925 -6.90311
L2.07093 0.485774
L0.852235 -0.528386
L0.690311 0.161925
L-0.690311 -0.161925" id="C0_31_41c8633577"/>
     <path d="
M0.595815 0.00601834
L0.589797 0.601834
L1.78745 0.018055
L-0.0601834 5.95815
L-1.78745 -0.018055
L-0.601834 0.589797
L-0.595815 -0.00601834
L0.595815 0.00601834" id="C0_32_ef5022e78d"/>
     <path d="
M0.746611 0.00945077
L0.73716 0.756062
L2.23983 0.0283523
L-0.0945077 7.46611
L-2.23983 -0.0283523
L-0.756062 0.73716
L-0.746611 -0.00945077
L0.746611 0.00945077" id="C0_33_72d2ed4b2b"/>
     <path d="
M0.999573 0.0169419
L0.982631 1.01651
L2.99872 0.0508257
L-0.169419 9.99573
L-2.99872 -0.0508257
L-1.01651 0.982631
L-0.999573 -0.0169419
L0.999573 0.0169419" id="C0_34_5b404496c3"/>
     <path d="
M1.3474 0.0345486
L1.27074 3.02412
L4.00008 1.74582
L-0.387594 15.1161
L-4.0843 1.53853
L-1.42405 2.95502
L-1.3474 -0.0345486
L1.3474 0.0345486" id="C0_35_e566a7a392"/>
     <path d="
M1.34598 0.0708409
L0.353939 18.9196
L3.11673 17.7153
L-1.62961 30.9625
L-4.95913 17.2902
L-2.33801 18.7779
L-1.34598 -0.0708409
L1.34598 0.0708409" id="C0_36_8a8ee80da2"/>
     <path d="
M1.34784 0
L0.67392 -1.16726
L-0.67392 -1.16726
L-1.34784 -1.65063e-16
L-0.67392 1.16726
L0.67392 1.16726
L1.34784 3.30126e-16
L0.67392 -1.16726" id="C0_37_9387e560d9"/>
     <path d="
M-1.34631 0.0641102
L-2.10398 -15.8468
L-4.7325 -14.3723
L-1.33465 -28.0277
L3.34539 -14.7569
L0.588652 -15.975
L1.34631 -0.0641102
L-1.34631 0.0641102" id="C0_38_dabe393ab6"/>
     <path d="
M-1.34744 0.0328644
L-1.40238 -2.21986
L-4.0644 -0.806688
L-0.350724 -14.3797
L4.02024 -1.00387
L1.29249 -2.28558
L1.34744 -0.0328644
L-1.34744 0.0328644" id="C0_39_7e646a139e"/>
     <path d="
M-0.966818 0.0158495
L-0.982667 -0.950968
L-2.90045 0.0475484
L-0.158495 -9.66818
L2.90045 -0.0475484
L0.950968 -0.982667
L0.966818 -0.0158495
L-0.966818 0.0158495" id="C0_3a_891b8b45d6"/>
     <path d="
M-0.728182 0.0089899
L-0.737172 -0.719192
L-2.18455 0.0269697
L-0.089899 -7.28182
L2.18455 -0.0269697
L0.719192 -0.737172
L0.728182 -0.0089899
L-0.728182 0.0089899" id="C0_3b_5e63b9b42a"/>
     <path d="
M0.570219 0.120956
L0.449263 0.691174
L1.71066 0.362867
L-1.20956 5.70219
L-1.71066 -0.362867
L-0.691174 0.449263
L-0.570219 -0.120956
L0.570219 0.120956" id="C0_3c_49c9f0cc38"/>
     <path d="
M0.697448 0.185398
L0.51205 0.882845
L2.09234 0.556193
L-1.85398 6.97448
L-2.09234 -0.556193
L-0.882845 0.51205
L-0.697448 -0.185398
L0.697448 0.185398" id="C0_3d_8ec94096aa"/>
     <path d="
M0.887433 0.315866
L0.571567 1.2033
L2.6623 0.947598
L-3.15866 8.87433
L-2.6623 -0.947598
L-1.2033 0.571567
L-0.887433 -0.315866
L0.887433 0.315866" id="C0_3e_d44c9189ed"/>
     <path d="
M1.17262 0.63141
L0.541209 1.80403
L3.51786 1.89423
L-6.3141 11.7262
L-3.51786 -1.89423
L-1.80403 0.541209
L-1.17262 -0.63141
L1.17262 0.63141" id="C0_3f_882c516678"/>
     <path d="
M0.904284 0.999472
L-5.54719 6.83652
L-2.73915 7.93117
L-15.4467 13.9756
L-8.16485 1.93435
L-7.35575 4.83757
L-0.904284 -0.999472
L0.904284 0.999472" id="C0_40_2bfa23414f"/>
     <path d="
M-0.0641102 1.34631
L-15.975 0.588652
L-14.7569 3.34539
L-28.0277 -1.33465
L-14.3723 -4.7325
L-15.8468 -2.10398
L0.0641102 -1.34631
L-0.0641102 1.34631" id="C0_41_8079633aa5"/>
     <path d="
M-0.953067 0.953067
L-6.42112 -4.51498
L-7.37418 -1.65578
L-14.0457 -14.0457
L-1.65578 -7.37418
L-4.51498 -6.42112
L0.953067 -0.953067
L-0.953067 0.953067" id="C0_42_acdf590d74"/>
     <path d="
M-1.1398 0.583801
L-1.7236 -0.556001
L-3.41941 1.7514
L-5.83801 -11.398
L3.41941 -1.7514
L0.556001 -1.7236
L1.1398 -0.583801
L-1.1398 0.583801" id="C0_43_2d1f5e6035"/>
     <path d="
M-0.864607 0.297652
L-1.16226 -0.566956
L-2.59382 0.892955
L-2.97652 -8.64607
L2.59382 -0.892955
L0.566956 -1.16226
L0.864607 -0.297652
L-0.864607 0.297652" id="C0_44_a6653ce60a"/>
     <path d="
M-0.682424 0.176925
L-0.859348 -0.505499
L-2.04727 0.530774
L-1.76925 -6.82424
L2.04727 -0.530774
L0.505499 -0.859348
L0.682424 -0.176925
L-0.682424 0.176925" id="C0_45_7be085cfed"/>
     <path d="
M0.508638 0.210648
L0.29799 0.719286
L1.52591 0.631944
L-2.10648 5.08638
L-1.52591 -0.631944
L-0.719286 0.29799
L-0.508638 -0.210648
L0.508638 0.210648" id="C0_46_c229ed1f54"/>
     <path d="
M0.588279 0.305309
L0.28297 0.893589
L1.76484 0.915928
L-3.05309 5.88279
L-1.76484 -0.915928
L-0.893589 0.28297
L-0.588279 -0.305309
L0.588279 0.305309" id="C0_47_790c187d09"/>
     <path d="
M0.674257 0.468551
L0.205705 1.14281
L2.02277 1.40565
L-4.68551 6.74257
L-2.02277 -1.40565
L-1.14281 0.205705
L-0.674257 -0.468551
L0.674257 0.468551" id="C0_48_824b5d3507"/>
     <path d="
M0.718513 0.755359
L-0.0368468 1.47387
L2.15554 2.26608
L-7.55359 7.18513
L-2.15554 -2.26608
L-1.47387 -0.0368468
L-0.718513 -0.755359
L0.718513 0.755359" id="C0_49_34b64568b2"/>
     <path d="
M0.548895 1.18446
L-0.635562 1.73335
L1.64668 3.55337
L-11.8446 5.48895
L-1.64668 -3.55337
L-1.73335 -0.635562
L-0.548895 -1.18446
L0.548895 1.18446" id="C0_4a_6636db81c7"/>
     <path d="
M-0.0328644 1.34744
L-2.28558 1.29249
L-1.00387 4.02024
L-14.3797 -0.350724
L-0.806688 -4.0644
L-2.21986 -1.40238
L0.0328644 -1.34744
L-0.0328644 1.34744" id="C0_4b_11c51fa409"/>
     <path d="
M-0.583801 1.1398
L-1.7236 0.556001
L-1.7514 3.41941
L-11.398 -5.83801
L1.7514 -3.41941
L-0.556001 -1.7236
L0.583801 -1.1398
L-0.583801 1.1398" id="C0_4c_42b5795bd3"/>
     <path d="
M-0.719411 0.719411
L-1.43882 0
L-2.15823 2.15823
L-7.19411 -7.19411
L2.15823 -2.15823
L0 -1.43882
L0.719411 -0.719411
L-0.719411 0.719411" id="C0_4d_72f159ee14"/>
     <path d="
M-0.666141 0.447734
L-1.11388 -0.218407
L-1.99842 1.3432
L-4.47734 -6.66141
L1.99842 -1.3432
L0.218407 -1.11388
L0.666141 -0.447734
L-0.666141 0.447734" id="C0_4e_e6b8d8ed44"/>
     <path d="
M-0.579754 0.293456
L-0.873209 -0.286298
L-1.73926 0.880367
L-2.93456 -5.79754
L1.73926 -0.880367
L0.286298 -0.873209
L0.579754 -0.293456
L-0.579754 0.293456" id="C0_4f_0dddd61289"/>
     <path d="
M0.431902 0.266122
L0.165781 0.698024
L1.29571 0.798365
L-2.66122 4.31902
L-1.29571 -0.798365
L-0.698024 0.165781
L-0.431902 -0.266122
L0.431902 0.266122" id="C0_50_7c1d5e5dcc"/>
     <path d="
M0.467812 0.361222
L0.10659 0.829035
L1.40344 1.08367
L-3.61222 4.67812
L-1.40344 -1.08367
L-0.829035 0.10659
L-0.467812 -0.361222
L0.467812 0.361222" id="C0_51_bae7758f11"/>
     <path d="
M0.48327 0.499652
L-0.016382 0.982923
L1.44981 1.49896
L-4.99652 4.8327
L-1.44981 -1.49896
L-0.982923 -0.016382
L-0.48327 -0.499652
L0.48327 0.499652" id="C0_52_c4bafc3b21"/>
     <path d="
M0.438893 0.686474
L-0.247581 1.12537
L1.31668 2.05942
L-6.86474 4.38893
L-1.31668 -2.05942
L-1.12537 -0.247581
L-0.438893 -0.686474
L0.438893 0.686474" id="C0_53_a74910dcdb"/>
     <path d="
M0.274582 0.881552
L-0.60697 1.15613
L0.823745 2.64466
L-8.81552 2.74582
L-0.823745 -2.64466
L-1.15613 -0.60697
L-0.274582 -0.881552
L0.274582 0.881552" id="C0_54_ba993df086"/>
     <path d="
M-0.0158495 0.966818
L-0.982667 0.950968
L-0.0475484 2.90045
L-9.66818 -0.158495
L0.0475484 -2.90045
L-0.950968 -0.982667
L0.0158495 -0.966818
L-0.0158495 0.966818" id="C0_55_648a455b16"/>
     <path d="
M-0.297652 0.864607
L-1.16226 0.566956
L-0.892955 2.59382
L-8.64607 -2.97652
L0.892955 -2.59382
L-0.566956 -1.16226
L0.297652 -0.864607
L-0.297652 0.864607" id="C0_56_c3b1d763ae"/>
     <path d="
M-0.447734 0.666141
L-1.11388 0.218407
L-1.3432 1.99842
L-6.66141 -4.47734
L1.3432 -1.99842
L-0.218407 -1.11388
L0.447734 -0.666141
L-0.447734 0.666141" id="C0_57_8e6d05d351"/>
     <path d="
M-0.483539 0.483539
L-0.967078 -7.48202e-17
L-1.45062 1.45062
L-4.83539 -4.83539
L1.45062 -1.45062
L7.48202e-17 -0.967078
L0.483539 -0.483539
L-0.483539 0.483539" id="C0_58_fabb2b84ac"/>
     <path d="
M-0.464728 0.34998
L-0.814708 -0.114748
L-1.39418 1.04994
L-3.4998 -4.64728
L1.39418 -1.04994
L0.114748 -0.814708
L0.464728 -0.34998
L-0.464728 0.34998" id="C0_59_44855b4510"/>
     <path d="
M0.356936 0.292038
L0.0648974 0.648974
L1.07081 0.876115
L-2.92038 3.56936
L-1.07081 -0.876115
L-0.648974 0.0648974
L-0.356936 -0.292038
L0.356936 0.292038" id="C0_5a_76f5be73b4"/>
     <path d="
M0.364033 0.373249
L-0.00921602 0.737281
L1.0921 1.11975
L-3.73249 3.64033
L-1.0921 -1.11975
L-0.737281 -0.00921602
L-0.364033 -0.373249
L0.364033 0.373249" id="C0_5b_636957cb6a"/>
     <path d="
M0.346596 0.475835
L-0.129239 0.82243
L1.03979 1.4275
L-4.75835 3.46596
L-1.03979 -1.4275
L-0.82243 -0.129239
L-0.346596 -0.475835
L0.346596 0.475835" id="C0_5c_fcd84db4b3"/>
     <path d="
M0.284667 0.591231
L-0.306564 0.875898
L0.854001 1.77369
L-5.91231 2.84667
L-0.854001 -1.77369
L-0.875898 -0.306564
L-0.284667 -0.591231
L0.284667 0.591231" id="C0_5d_57a4cc1da5"/>
     <path d="
M0.161925 0.690311
L-0.528386 0.852235
L0.485774 2.07093
L-6.90311 1.61925
L-0.485774 -2.07093
L-0.852235 -0.528386
L-0.161925 -0.690311
L0.161925 0.690311" id="C0_5e_91d07404b4"/>
     <path d="
M-0.0089899 0.728182
L-0.737172 0.719192
L-0.0269697 2.18455
L-7.28182 -0.089899
L0.0269697 -2.18455
L-0.719192 -0.737172
L0.0089899 -0.728182
L-0.0089899 0.728182" id="C0_5f_50462d66cf"/>
     <path d="
M-0.176925 0.682424
L-0.859348 0.505499
L-0.530774 2.04727
L-6.82424 -1.76925
L0.530774 -2.04727
L-0.505499 -0.859348
L0.176925 -0.682424
L-0.176925 0.682424" id="C0_60_b6d70872e1"/>
     <path d="
M-0.293456 0.579754
L-0.873209 0.286298
L-0.880367 1.73926
L-5.79754 -2.93456
L0.880367 -1.73926
L-0.286298 -0.873209
L0.293456 -0.579754
L-0.293456 0.579754" id="C0_61_e5c02fefcb"/>
     <path d="
M-0.34998 0.464728
L-0.814708 0.114748
L-1.04994 1.39418
L-4.64728 -3.4998
L1.04994 -1.39418
L-0.114748 -0.814708
L0.34998 -0.464728
L-0.34998 0.464728" id="C0_62_e98b073f89"/>
     <path d="
M-0.364147 0.364147
L-0.728293 -7.48202e-17
L-1.09244 1.09244
L-3.64147 -3.64147
L1.09244 -1.09244
L7.48202e-17 -0.728293
L0.364147 -0.364147
L-0.364147 0.364147" id="C0_63_5624c6a18c"/>
    </defs>
    <g clip-path="url(#pe983b0043e)">
     <use x="-21.6" xlink:href="#C0_0_3b2ffa97a3" y="317.196"/>
    </g>
    <g clip-path="url(#pe983b0043e)">
     <use x="23.7818181818" xlink:href="#C0_1_c995c55578" y="317.196"/>
    </g>
    <g clip-path="url(#pe983b0043e)">
     <use x="69.1636363636" xlink:href="#C0_2_8a17ea75ad" y="317.196"/>
    </g>
    <g clip-path="url(#pe983b0043e)">
     <use x="114.545454545" xlink:href="#C0_3_06fdcd2a80" y="317.196"/>
    </g>
    <g clip-path="url(#pe983b0043e)">
     <use x="159.927272727" xlink:href="#C0_4_e232633610" y="317.196"/>
    </g>
    <g clip-path="url(#pe983b0043e)">
     <use x="205.309090909" xlink:href="#C0_5_300f5cd7e8" y="317.196"/>
    </g>
    <g clip-path="url(#pe983b0043e)">
     <use x="250.690909091" xlink:href="#C0_6_00f1d40c76" y="317.196"/>
    </g>
    <g clip-path="url(#pe983b0043e)">
     <use x="296.072727273" xlink:href="#C0_7_ff11e511db" y="317.196"/>
    </g>
    <g clip-path="url(#pe983b0043e)">
     <use x="341.454545455" xlink:href="#C0_8_3997e92ef1" y="317.196"/>
    </g>
    <g clip-path="url(#pe983b0043e)">
     <use x="386.836363636" xlink:href="#C0_9_dc337a3cbf" y="317.196"/>
    </g>
    <g clip-path="url(#pe983b0043e)">
     <use x="-21.6" xlink:href="#C0_a_88cc3977c8" y="285.479636364"/>
    </g>
    <g clip-path="url(#pe983b0043e)">
     <use x="23.7818181818" xlink:href="#C0_b_efb3a0655d" y="285.479636364"/>
    </g>
    <g clip-path="url(#pe983b0043e)">
     <use x="69.1636363636" xlink:href="#C0_c_3eb5ee6fa8" y="285.479636364"/>
    </g>
    <g clip-path="url(#pe983b0043e)">
     <use x="114.545454545" xlink:href="#C0_d_27c9cbba97" y="285.479636364"/>
    </g>
    <g clip-path="url(#pe983b0043e)">
     <use x="159.927272727" xlink:href="#C0_e_2c93751047" y="285.479636364"/>
    </g>
    <g clip-path="url(#pe983b0043e)">
     <use x="205.309090909" xlink:href="#C0_f_0f351b9392" y="285.479636364"/>
    </g>
    <g clip-path="url(#pe983b0043e)">
     <use x="250.690909091" xlink:href="#C0_10_25435ea05b" y="285.479636364"/>
    </g>
    <g clip-path="url(#pe983b0043e)">
     <use x="296.072727273" xlink:href="#C0_11_83b6efddca" y="285.479636364"/>
    </g>
    <g clip-path="url(#pe983b0043e)">
     <use x="341.454545455" xlink:href="#C0_12_dbe04154a6" y="285.479636364"/>
    </g>
    <g clip-path="url(#pe983b0043e)">
     <use x="386.836363636" xlink:href="#C0_13_237799e324" y="285.479636364"/>
    </g>
    <g clip-path="url(#pe983b0043e)">
     <use x="-21.6" xlink:href="#C0_14_1643e709d0" y="253.763272727"/>
    </g>
    <g clip-path="url(#pe983b0043e)">
     <use x="23.7818181818" xlink:href="#C0_15_d719416334" y="253.763272727"/>
    </g>
    <g clip-path="url(#pe983b0043e)">
     <use x="69.1636363636" xlink:href="#C0_16_f838de18f4" y="253.763272727"/>
    </g>
    <g clip-path="url(#pe983b0043e)">
     <use x="114.545454545" xlink:href="#C0_17_9eeb8f6d8d" y="253.763272727"/>
    </g>
    <g clip-path="url(#pe983b0043e)">
     <use x="159.927272727" xlink:href="#C0_18_d9d9d29de3" y="253.763272727"/>
    </g>
    <g clip-path="url(#pe983b0043e)">
     <use x="205.309090909" xlink:href="#C0_19_fd30e9bcdd" y="253.763272727"/>
    </g>
    <g clip-path="url(#pe983b0043e)">
     <use x="250.690909091" xlink:href="#C0_1a_edf6d8de01" y="253.763272727"/>
    </g>
    <g clip-path="url(#pe983b0043e)">
     <use x="296.072727273" xlink:href="#C0_1b_75fb5984d7" y="253.763272727"/>
    </g>
    <g clip-path="url(#pe983b0043e)">
     <use x="341.454545455" xlink:href="#C0_1c_2edfad7678" y="253.763272727"/>
    </g>
    <g clip-path="url(#pe983b0043e)">
     <use x="386.836363636" xlink:href="#C0_1d_8b723e61df" y="253.763272727"/>
    </g>
    <g clip-path="url(#pe983b0043e)">
     <use x="-21.6" xlink:href="#C0_1e_c894c4d366" y="222.046909091"/>
    </g>
    <g clip-path="url(#pe983b0043e)">
     <use x="23.7818181818" xlink:href="#C0_1f_e3d9bbd9a5" y="222.046909091"/>
    </g>
    <g clip-path="url(#pe983b0043e)">
     <use x="69.1636363636" xlink:href="#C0_20_43e897737f" y="222.046909091"/>
    </g>
    <g clip-path="url(#pe983b0043e)">
     <use x="114.545454545" xlink:href="#C0_21_8afdf57196" y="222.046909091"/>
    </g>
    <g clip-path="url(#pe983b0043e)">
     <use x="159.927272727" xlink:href="#C0_22_1828b64d0d" y="222.046909091"/>
    </g>
    <g clip-path="url(#pe983b0043e)">
     <use x="205.309090909" xlink:href="#C0_23_54cc03f85a" y="222.046909091"/>
    </g>
    <g clip-path="url(#pe983b0043e)">
     <use x="250.690909091" xlink:href="#C0_24_7f7450ec14" y="222.046909091"/>
    </g>
    <g clip-path="url(#pe983b0043e)">
     <use x="296.072727273" xlink:href="#C0_25_77f686d849" y="222.046909091"/>
    </g>
    <g clip-path="url(#pe983b0043e)">
     <use x="341.454545455" xlink:href="#C0_26_44c3908447" y="222.046909091"/>
    </g>
    <g clip-path="url(#pe983b0043e)">
     <use x="386.836363636" xlink:href="#C0_27_746b1ded7b" y="222.046909091"/>
    </g>
    <g clip-path="url(#pe983b0043e)">
     <use x="-21.6" xlink:href="#C0_28_6b94a5fa81" y="190.330545455"/>
    </g>
    <g clip-path="url(#pe983b0043e)">
     <use x="23.7818181818" xlink:href="#C0_29_fa9c6bd169" y="190.330545455"/>
    </g>
    <g clip-path="url(#pe983b0043e)">
     <use x="69.1636363636" xlink:href="#C0_2a_c939db0efb" y="190.330545455"/>
    </g>
    <g clip-path="url(#pe983b0043e)">
     <use x="114.545454545" xlink:href="#C0_2b_f0aab9c5cd" y="190.330545455"/>
    </g>
    <g clip-path="url(#pe983b0043e)">
     <use x="159.927272727" xlink:href="#C0_2c_1d1ce8fc8e" y="190.330545455"/>
    </g>
    <g clip-path="url(#pe983b0043e)">
     <use x="205.309090909" xlink:href="#C0_2d_aa2e53bb04" y="190.330545455"/>
    </g>
    <g clip-path="url(#pe983b0043e)">
     <use x="250.690909091" xlink:href="#C0_2e_cd83c8169f" y="190.330545455"/>
    </g>
    <g clip-path="url(#pe983b0043e)">
     <use x="296.072727273" xlink:href="#C0_2f_242d44cceb" y="190.330545455"/>
    </g>
    <g clip-path="url(#pe983b0043e)">
     <use x="341.454545455" xlink:href="#C0_30_ec6fbfe2fd" y="190.330545455"/>
    </g>
    <g clip-path="url(#pe983b0043e)">
     <use x="386.836363636" xlink:href="#C0_31_41c8633577" y="190.330545455"/>
    </g>
    <g clip-path="url(#pe983b0043e)">
     <use x="-21.6" xlink:href="#C0_32_ef5022e78d" y="158.614181818"/>
    </g>
    <g clip-path="url(#pe983b0043e)">
     <use x="23.7818181818" xlink:href="#C0_33_72d2ed4b2b" y="158.614181818"/>
    </g>
    <g clip-path="url(#pe983b0043e)">
     <use x="69.1636363636" xlink:href="#C0_34_5b404496c3" y="158.614181818"/>
    </g>
    <g clip-path="url(#pe983b0043e)">
     <use x="114.545454545" xlink:href="#C0_35_e566a7a392" y="158.614181818"/>
    </g>
    <g clip-path="url(#pe983b0043e)">
     <use x="159.927272727" xlink:href="#C0_36_8a8ee80da2" y="158.614181818"/>
    </g>
    <g clip-path="url(#pe983b0043e)">
     <use x="205.309090909" xlink:href="#C0_37_9387e560d9" y="158.614181818"/>
    </g>
    <g clip-path="url(#pe983b0043e)">
     <use x="250.690909091" xlink:href="#C0_38_dabe393ab6" y="158.614181818"/>
    </g>
    <g clip-path="url(#pe983b0043e)">
     <use x="296.072727273" xlink:href="#C0_39_7e646a139e" y="158.614181818"/>
    </g>
    <g clip-path="url(#pe983b0043e)">
     <use x="341.454545455" xlink:href="#C0_3a_891b8b45d6" y="158.614181818"/>
    </g>
    <g clip-path="url(#pe983b0043e)">
     <use x="386.836363636" xlink:href="#C0_3b_5e63b9b42a" y="158.614181818"/>
    </g>
    <g clip-path="url(#pe983b0043e)">
     <use x="-21.6" xlink:href="#C0_3c_49c9f0cc38" y="126.897818182"/>
    </g>
    <g clip-path="url(#pe983b0043e)">
     <use x="23.7818181818" xlink:href="#C0_3d_8ec94096aa" y="126.897818182"/>
    </g>
    <g clip-path="url(#pe983b0043e)">
     <use x="69.1636363636" xlink:href="#C0_3e_d44c9189ed" y="126.897818182"/>
    </g>
    <g clip-path="url(#pe983b0043e)">
     <use x="114.545454545" xlink:href="#C0_3f_882c516678" y="126.897818182"/>
    </g>
    <g clip-path="url(#pe983b0043e)">
     <use x="159.927272727" xlink:href="#C0_40_2bfa23414f" y="126.897818182"/>
    </g>
    <g clip-path="url(#pe983b0043e)">
     <use x="205.309090909" xlink:href="#C0_41_8079633aa5" y="126.897818182"/>
    </g>
    <g clip-path="url(#pe983b0043e)">
     <use x="250.690909091" xlink:href="#C0_42_acdf590d74" y="126.897818182"/>
    </g>
    <g clip-path="url(#pe983b0043e)">
     <use x="296.072727273" xlink:href="#C0_43_2d1f5e6035" y="126.897818182"/>
    </g>
    <g clip-path="url(#pe983b0043e)">
     <use x="341.454545455" xlink:href="#C0_44_a6653ce60a" y="126.897818182"/>
    </g>
    <g clip-path="url(#pe983b0043e)">
     <use x="386.836363636" xlink:href="#C0_45_7be085cfed" y="126.897818182"/>
    </g>
    <g clip-path="url(#pe983b0043e)">
     <use x="-21.6" xlink:href="#C0_46_c229ed1f54" y="95.1814545455"/>
    </g>
    <g clip-path="url(#pe983b0043e)">
     <use x="23.7818181818" xlink:href="#C0_47_790c187d09" y="95.1814545455"/>
    </g>
    <g clip-path="url(#pe983b0043e)">
     <use x="69.1636363636" xlink:href="#C0_48_824b5d3507" y="95.1814545455"/>
    </g>
    <g clip-path="url(#pe983b0043e)">
     <use x="114.545454545" xlink:href="#C0_49_34b64568b2" y="95.1814545455"/>
    </g>
    <g clip-path="url(#pe983b0043e)">
     <use x="159.927272727" xlink:href="#C0_4a_6636db81c7" y="95.1814545455"/>
    </g>
    <g clip-path="url(#pe983b0043e)">
     <use x="205.309090909" xlink:href="#C0_4b_11c51fa409" y="95.1814545455"/>
    </g>
    <g clip-path="url(#pe983b0043e)">
     <use x="250.690909091" xlink:href="#C0_4c_42b5795bd3" y="95.1814545455"/>
    </g>
    <g clip-path="url(#pe983b0043e)">
     <use x="296.072727273" xlink:href="#C0_4d_72f159ee14" y="95.1814545455"/>
    </g>
    <g clip-path="url(#pe983b0043e)">
     <use x="341.454545455" xlink:href="#C0_4e_e6b8d8ed44" y="95.1814545455"/>
    </g>
    <g clip-path="url(#pe983b0043e)">
     <use x="386.836363636" xlink:href="#C0_4f_0dddd61289" y="95.1814545455"/>
    </g>
    <g clip-path="url(#pe983b0043e)">
     <use x="-21.6" xlink:href="#C0_50_7c1d5e5dcc" y="63.4650909091"/>
    </g>
    <g clip-path="url(#pe983b0043e)">
     <use x="23.7818181818" xlink:href="#C0_51_bae7758f11" y="63.4650909091"/>
    </g>
    <g clip-path="url(#pe983b0043e)">
     <use x="69.1636363636" xlink:href="#C0_52_c4bafc3b21" y="63.4650909091"/>
    </g>
    <g clip-path="url(#pe983b0043e)">
     <use x="114.545454545" xlink:href="#C0_53_a74910dcdb" y="63.4650909091"/>
    </g>
    <g clip-path="url(#pe983b0043e)">
     <use x="159.927272727" xlink:href="#C0_54_ba993df086" y="63.4650909091"/>
    </g>
    <g clip-path="url(#pe983b0043e)">
     <use x="205.309090909" xlink:href="#C0_55_648a455b16" y="63.4650909091"/>
    </g>
    <g clip-path="url(#pe983b0043e)">
     <use x="250.690909091" xlink:href="#C0_56_c3b1d763ae" y="63.4650909091"/>
    </g>
    <g clip-path="url(#pe983b0043e)">
     <use x="296.072727273" xlink:href="#C0_57_8e6d05d351" y="63.4650909091"/>
    </g>
    <g clip-path="url(#pe983b0043e)">
     <use x="341.454545455" xlink:href="#C0_58_fabb2b84ac" y="63.4650909091"/>
    </g>
    <g clip-path="url(#pe983b0043e)">
     <use x="386.836363636" xlink:href="#C0_59_44855b4510" y="63.4650909091"/>
    </g>
    <g clip-path="url(#pe983b0043e)">
     <use x="-21.6" xlink:href="#C0_5a_76f5be73b4" y="31.7487272727"/>
    </g>
    <g clip-path="url(#pe983b0043e)">
     <use x="23.7818181818" xlink:href="#C0_5b_636957cb6a" y="31.7487272727"/>
    </g>
    <g clip-path="url(#pe983b0043e)">
     <use x="69.1636363636" xlink:href="#C0_5c_fcd84db4b3" y="31.7487272727"/>
    </g>
    <g clip-path="url(#pe983b0043e)">
     <use x="114.545454545" xlink:href="#C0_5d_57a4cc1da5" y="31.7487272727"/>
    </g>
    <g clip-path="url(#pe983b0043e)">
     <use x="159.927272727" xlink:href="#C0_5e_91d07404b4" y="31.7487272727"/>
    </g>
    <g clip-path="url(#pe983b0043e)">
     <use x="205.309090909" xlink:href="#C0_5f_50462d66cf" y="31.7487272727"/>
    </g>
    <g clip-path="url(#pe983b0043e)">
     <use x="250.690909091" xlink:href="#C0_60_b6d70872e1" y="31.7487272727"/>
    </g>
    <g clip-path="url(#pe983b0043e)">
     <use x="296.072727273" xlink:href="#C0_61_e5c02fefcb" y="31.7487272727"/>
    </g>
    <g clip-path="url(#pe983b0043e)">
     <use x="341.454545455" xlink:href="#C0_62_e98b073f89" y="31.7487272727"/>
    </g>
    <g clip-path="url(#pe983b0043e)">
     <use x="386.836363636" xlink:href="#C0_63_5624c6a18c" y="31.7487272727"/>
    </g>
   </g>
  </g>
 </g>
 <defs>
  <clipPath id="pe983b0043e">
   <rect height="313.992" width="449.28" x="-21.6" y="3.204"/>
  </clipPath>
 </defs>
</svg>
